<svg xmlns="http://www.w3.org/2000/svg" width="33" height="33" fill="none"><g clip-path="url(#A)" fill="#000"><path d="M23.324 18.248h-4.461c-1.221 0-2.214.97-2.214 2.162v3.342c0 1.193.993 2.162 2.214 2.162h4.461c1.221 0 2.214-.97 2.214-2.162V20.41c0-1.193-.993-2.162-2.213-2.162zm.604 5.504a.6.6 0 0 1-.604.59h-4.461a.6.6 0 0 1-.604-.59V20.41a.6.6 0 0 1 .604-.59h4.461a.6.6 0 0 1 .604.59v3.342zm8.9-11.578c0-.138-.034-.269-.107-.387L27.837 3.4c-.141-.242-.409-.4-.698-.4H5.681a.8.8 0 0 0-.698.4L.107 11.787a.78.78 0 0 0-.107.387c0 1.881 1.16 3.493 2.817 4.207v13.833c0 .432.362.786.805.786h25.577c.443 0 .805-.354.805-.786V16.479c0-.033 0-.059-.007-.085 1.663-.714 2.831-2.333 2.831-4.22zM6.151 4.579H26.67l3.817 6.559H2.341l3.81-6.559zm17.212 8.125c-.255 1.415-1.523 2.49-3.045 2.49s-2.79-1.075-3.045-2.49h6.091zm-7.801 0c-.255 1.415-1.523 2.49-3.045 2.49s-2.79-1.075-3.052-2.49h6.097zm-13.898 0h6.097c-.255 1.415-1.529 2.49-3.052 2.49-1.523.007-2.79-1.075-3.045-2.49zm11.859 16.723H8.894v-8.486c0-.616.51-1.12 1.147-1.12h2.341c.63 0 1.147.498 1.147 1.12v8.486h-.007zm14.871 0H15.133v-8.486c0-1.481-1.234-2.693-2.757-2.693h-2.341c-1.516 0-2.757 1.206-2.757 2.693v8.492H4.427V16.767l.282.007c1.623 0 3.059-.806 3.904-2.031.845 1.225 2.281 2.031 3.904 2.031s3.052-.806 3.904-2.031a4.73 4.73 0 0 0 3.897 2.031 4.72 4.72 0 0 0 3.897-2.031c.845 1.225 2.281 2.031 3.904 2.031l.275-.007v12.66zm-.275-14.226c-1.523 0-2.79-1.075-3.045-2.49h6.097c-.262 1.409-1.529 2.49-3.052 2.49z"/></g><defs><clipPath id="A"><path fill="#fff" transform="translate(0 3)" d="M0 0h32.828v28H0z"/></clipPath></defs></svg>