<svg xmlns="http://www.w3.org/2000/svg" width="33" height="33" fill="none"><g clip-path="url(#A)" fill="#000"><path d="M25.168 28c-2.224 0-4.034-1.794-4.034-4s1.809-4 4.034-4 4.034 1.794 4.034 4-1.809 4-4.034 4zm0-6a2.01 2.01 0 0 0-2.017 2 2.017 2.017 0 1 0 4.034 0 2.01 2.01 0 0 0-2.017-2zm-13.782 6c-2.224 0-4.034-1.794-4.034-4s1.809-4 4.034-4 4.034 1.794 4.034 4-1.809 4-4.034 4zm0-6a2.01 2.01 0 0 0-2.017 2 2.01 2.01 0 0 0 2.017 2 2.01 2.01 0 0 0 2.017-2 2.01 2.01 0 0 0-2.017-2z"/><path d="M29.108 15.416L26.362 10h-4.689V8h5.311a1.01 1.01 0 0 1 .901.55l3.025 5.967-1.802.899zm-6.965 7.617h-7.63v2h7.63v-2z"/><path d="M8.361 25.033H4.866c-.557 0-1.008-.448-1.008-1s.451-1 1.008-1h3.496c.557 0 1.008.448 1.008 1s-.451 1-1.008 1zm23.631 0h-3.798c-.557 0-1.008-.448-1.008-1s.451-1 1.008-1h2.79v-5.157L29.515 16h-7.843c-.557 0-1.008-.447-1.008-1V8H4.866c-.557 0-1.008-.447-1.008-1s.451-1 1.008-1h16.807c.557 0 1.008.447 1.008 1v7h7.328a1.01 1.01 0 0 1 .796.387l1.984 2.533a1 1 0 0 1 .212.614v6.5c0 .553-.451 1-1.008 1zM8.294 19.966H3.656c-.557 0-1.008-.448-1.008-1s.451-1 1.008-1h4.639c.557 0 1.008.448 1.008 1s-.451 1-1.008 1zm2.32-3.933H2.008c-.557 0-1.008-.448-1.008-1s.451-1 1.008-1h8.605c.557 0 1.008.447 1.008 1s-.451 1-1.008 1zm1.647-3.933H3.656c-.557 0-1.008-.447-1.008-1s.451-1 1.008-1h8.605c.557 0 1.008.447 1.008 1s-.451 1-1.008 1z"/></g><defs><clipPath id="A"><path fill="#fff" transform="translate(1 6)" d="M0 0h32v22H0z"/></clipPath></defs></svg>