<svg width="202" height="169" viewBox="0 0 202 169" fill="none" xmlns="http://www.w3.org/2000/svg">
<ellipse cx="101.374" cy="134.277" rx="100.428" ry="34.0582" fill="#7FC7C5"/>
<ellipse cx="101.374" cy="129.038" rx="100.428" ry="34.0582" fill="#A0E7E5"/>
<ellipse cx="101.374" cy="123.798" rx="75.976" ry="23.5788" fill="#FFA6BB"/>
<rect x="25.3979" y="70.5278" width="151.952" height="52.3973" fill="#FFA6BB"/>
<ellipse cx="101.374" cy="69.6544" rx="75.976" ry="23.5788" fill="#F9CED0"/>
<path d="M25.3979 126.419V120.306C32.3843 132.532 57.8843 142.138 103.994 142.138C150.103 142.138 172.11 129.912 177.35 120.306V126.419C174.73 133.405 156.391 147.378 103.994 147.378C48.9767 147.378 29.7644 135.152 25.3979 126.419Z" fill="#7FC7C5"/>
<ellipse cx="101.229" cy="63.9778" rx="54.8716" ry="17.0291" fill="#FFA6BB"/>
<rect x="46.3569" y="18.1309" width="110.034" height="45.411" fill="#FFA6BB"/>
<ellipse cx="101.229" cy="17.6937" rx="54.8716" ry="17.0291" fill="#F9CED0"/>
<path d="M46.3569 65.87V61.4551C51.4026 70.285 69.8193 77.2228 103.121 77.2228C136.422 77.2228 152.316 68.3929 156.1 61.4551V65.87C154.208 70.9157 140.963 81.007 103.121 81.007C63.386 81.007 49.5105 72.1771 46.3569 65.87Z" fill="#7FC7C5"/>
</svg>
