<svg width="202" height="233" viewBox="0 0 202 233" fill="none" xmlns="http://www.w3.org/2000/svg">
<ellipse cx="101.373" cy="198.721" rx="100.428" ry="34.0582" fill="#7FC7C5"/>
<ellipse cx="101.373" cy="193.481" rx="100.428" ry="34.0582" fill="#A0E7E5"/>
<ellipse cx="101.373" cy="188.242" rx="75.976" ry="23.5788" fill="#FFA6BB"/>
<rect x="25.3975" y="140.212" width="151.952" height="47.1575" fill="#FFA6BB"/>
<ellipse cx="101.373" cy="141.084" rx="75.976" ry="23.5788" fill="#F9CED0"/>
<path d="M25.3975 190.862V184.749C32.3838 196.975 57.8838 206.581 103.993 206.581C150.103 206.581 172.11 194.355 177.35 184.749V190.862C174.73 197.848 156.391 211.821 103.993 211.821C48.9762 211.821 29.7639 199.595 25.3975 190.862Z" fill="#7FC7C5"/>
<ellipse cx="101.956" cy="135.839" rx="59.0925" ry="18.3391" fill="#FFA6BB"/>
<rect x="42.8633" y="94.7944" width="118.767" height="40.1712" fill="#FFA6BB"/>
<ellipse cx="101.956" cy="93.9211" rx="59.0925" ry="18.3391" fill="#F9CED0"/>
<path d="M42.8633 137.878V133.124C48.2971 142.633 68.1304 150.104 103.993 150.104C139.857 150.104 156.973 140.595 161.048 133.124V137.878C159.011 143.312 144.747 154.179 103.993 154.179C61.2023 154.179 46.2594 144.67 42.8633 137.878Z" fill="#7FC7C5"/>
<ellipse cx="101.193" cy="85.3209" rx="46.1043" ry="14.3082" fill="#FFA6BB"/>
<rect x="55.0889" y="45.8906" width="92.5685" height="38.4247" fill="#FFA6BB"/>
<ellipse cx="101.193" cy="46.2262" rx="46.1043" ry="14.3082" fill="#F9CED0"/>
<path d="M55.0889 86.9102V83.2007C59.3283 90.6198 74.8025 96.4491 102.783 96.4491C130.764 96.4491 144.118 89.03 147.298 83.2007V86.9102C145.708 91.1497 134.579 99.6287 102.783 99.6287C69.3971 99.6287 57.7385 92.2096 55.0889 86.9102Z" fill="#7FC7C5"/>
<ellipse cx="100.97" cy="41.4852" rx="35.4014" ry="10.9866" fill="#FFA6BB"/>
<rect x="65.5684" y="11.208" width="71.0791" height="29.5045" fill="#FFA6BB"/>
<ellipse cx="100.97" cy="11.4661" rx="35.4014" ry="10.9866" fill="#F9CED0"/>
<path d="M65.5684 42.7073V39.8589C68.8237 45.5557 80.7055 50.0317 102.19 50.0317C123.675 50.0317 133.93 44.3349 136.371 39.8589V42.7073C135.15 45.9626 126.605 52.4732 102.19 52.4732C76.555 52.4732 67.6029 46.7764 65.5684 42.7073Z" fill="#7FC7C5"/>
</svg>
