<svg width="202" height="202" viewBox="0 0 202 202" fill="none" xmlns="http://www.w3.org/2000/svg">
<ellipse cx="101.373" cy="167.001" rx="100.428" ry="34.0582" fill="#7FC7C5"/>
<ellipse cx="101.373" cy="161.762" rx="100.428" ry="34.0582" fill="#A0E7E5"/>
<ellipse cx="101.373" cy="156.523" rx="75.976" ry="23.5788" fill="#FFA6BB"/>
<rect x="25.3975" y="108.492" width="151.952" height="47.1575" fill="#FFA6BB"/>
<ellipse cx="101.373" cy="109.366" rx="75.976" ry="23.5788" fill="#F9CED0"/>
<path d="M25.3975 159.143V153.03C32.3838 165.256 57.8838 174.862 103.993 174.862C150.103 174.862 172.11 162.636 177.35 153.03V159.143C174.73 166.129 156.391 180.102 103.993 180.102C48.9762 180.102 29.7639 167.876 25.3975 159.143Z" fill="#7FC7C5"/>
<ellipse cx="101.956" cy="104.12" rx="59.0925" ry="18.3391" fill="#FFA6BB"/>
<rect x="42.8633" y="63.0757" width="118.767" height="40.1712" fill="#FFA6BB"/>
<ellipse cx="101.956" cy="62.2028" rx="59.0925" ry="18.3391" fill="#F9CED0"/>
<path d="M42.8633 106.159V101.405C48.2971 110.914 68.1304 118.385 103.993 118.385C139.857 118.385 156.973 108.876 161.048 101.405V106.159C159.011 111.593 144.747 122.461 103.993 122.461C61.2023 122.461 46.2594 112.952 42.8633 106.159Z" fill="#7FC7C5"/>
<ellipse cx="101.193" cy="53.6037" rx="46.1043" ry="14.3082" fill="#FFA6BB"/>
<rect x="55.0889" y="14.1729" width="92.5685" height="38.4247" fill="#FFA6BB"/>
<ellipse cx="101.193" cy="14.5075" rx="46.1043" ry="14.3082" fill="#F9CED0"/>
<path d="M55.0889 55.1929V51.4834C59.3283 58.9025 74.8025 64.7318 102.783 64.7318C130.764 64.7318 144.118 57.3127 147.298 51.4834V55.1929C145.708 59.4324 134.579 67.9114 102.783 67.9114C69.3971 67.9114 57.7385 60.4923 55.0889 55.1929Z" fill="#7FC7C5"/>
</svg>
