<svg xmlns="http://www.w3.org/2000/svg" width="32" height="34" fill="#fff"><path d="M28.824 19.333c-.818 6.688-5.644 7.105-6.539 7.397-.38.125-3.898 1.01-8.327.718l-4.792 5.26-.008-6.061-.034-.008c-6.446-1.812-6.227-8.616-6.159-12.181.076-3.565.734-6.495 2.7-8.458 3.527-3.239 10.808-2.755 10.808-2.755 6.142.025 9.087 1.904 9.77 2.53 2.27 1.962 3.425 6.671 2.582 13.559zm-.903-15.229c-.81-.751-4.067-3.147-11.331-3.18 0 0-8.564-.526-12.74 3.356C1.53 6.635.711 10.083.619 14.357.534 18.632.424 26.639 8.043 28.809h.008v3.314s-.051 1.344.827 1.611c1.055.334 1.671-.685 2.683-1.787.557-.601 1.316-1.486 1.89-2.162 5.214.442 9.222-.576 9.669-.718 1.055-.351 7.003-1.119 7.973-9.125.987-8.265-.498-13.484-3.172-15.838zm-4.649 16.232l-1.451-1.177a17.89 17.89 0 0 0-1.561-1.01c-.717-.401-1.451-.15-1.755.251l-.633.801c-.321.409-.818.334-.945.309-.928-.234-1.915-.802-2.928-1.77-1.021-.977-1.645-1.995-1.865-3.056l-.017-.067c-.059-.434.017-.634.194-.935l.034-.025c.422-.392 1.215-.868 1.316-1.319.312-.785-1.038-2.43-1.223-2.713 0 0-.979-1.277-1.325-1.528-.371-.309-.953-.484-1.544-.125l-.034.025C7.849 9.123 7.241 9.774 7.41 10.735l.084.392c.852 2.663 2.506 5.502 4.961 8.032 2.43 2.496 5.062 3.991 7.653 5.026.675.225 1.375.033 2.092-.576l.008-.008c.548-.509.987-1.052 1.308-1.636v-.008c.329-.643.219-1.227-.245-1.62zM19.239 14.5a.2.2 0 0 1-.194-.184c-.034-.693-.219-1.219-.557-1.57s-.835-.543-1.493-.584c-.11-.008-.186-.1-.186-.209.008-.109.093-.192.202-.184.759.042 1.342.275 1.747.701s.633 1.035.666 1.829c.009.108-.076.2-.186.209m1.916.643c-.11 0-.194-.092-.194-.2.034-1.327-.363-2.446-1.164-3.331a4.15 4.15 0 0 0-1.443-1.035c-.557-.25-1.215-.401-1.932-.451a.19.19 0 0 1-.177-.209c.008-.109.101-.192.211-.184 1.544.117 2.767.66 3.636 1.62s1.299 2.179 1.265 3.607c-.008.1-.093.184-.202.184z"/><path d="M23.12 15.936a.19.19 0 0 1-.194-.192c-.008-1.169-.186-2.229-.531-3.148-.346-.91-.861-1.712-1.536-2.388-.675-.668-1.451-1.177-2.286-1.52-.844-.342-1.78-.518-2.793-.518-.11 0-.194-.092-.194-.2a.19.19 0 0 1 .194-.192c2.126.017 3.923.735 5.349 2.146a6.97 6.97 0 0 1 1.628 2.53c.363.96.548 2.071.557 3.29 0 .1-.084.184-.194.192z"/></svg>