<svg xmlns="http://www.w3.org/2000/svg" width="33" height="32" fill="#fff"><path d="M22.765 31.793H10.517c-5.331 0-9.669-4.338-9.669-9.669V9.876c0-5.331 4.338-9.669 9.669-9.669h12.244c5.331 0 9.669 4.338 9.669 9.669V22.12a9.68 9.68 0 0 1-9.665 9.673zM10.517 2.573A7.32 7.32 0 0 0 3.21 9.88v12.244a7.32 7.32 0 0 0 7.307 7.307h12.244a7.32 7.32 0 0 0 7.307-7.307V9.876a7.32 7.32 0 0 0-7.307-7.307H10.517v.004zm6.122 21.417a8 8 0 0 1-7.988-7.988 8 8 0 0 1 7.988-7.988 8 8 0 0 1 7.988 7.988c.004 4.404-3.58 7.988-7.988 7.988zm0-13.556c-3.071 0-5.568 2.497-5.568 5.568s2.497 5.568 5.568 5.568 5.568-2.497 5.568-5.568-2.497-5.568-5.568-5.568zm10.94-3.293A2.08 2.08 0 0 1 25.5 9.22a2.08 2.08 0 0 1-2.079-2.079A2.08 2.08 0 0 1 25.5 5.062a2.08 2.08 0 0 1 2.079 2.079z"/></svg>