<svg xmlns="http://www.w3.org/2000/svg" width="20" height="20" fill="none"><path d="M10 19.6c5.302 0 9.6-4.298 9.6-9.6S15.302.4 10 .4A9.6 9.6 0 0 0 .4 10c0 5.302 4.298 9.6 9.6 9.6z" fill="url(#A)"/><path d="M14.671 5.922l-1.715 8.645s-.24.6-.899.312L8.1 11.846l-1.439-.695-2.422-.816s-.372-.132-.408-.42.42-.444.42-.444l9.628-3.777c0 0 .791-.348.791.228z" fill="#fff"/><path d="M7.797 14.47s-.115-.011-.259-.467l-.875-2.854 5.815-3.693s.336-.204.324 0c0 0 .06.036-.12.204l-4.568 4.113" fill="#d3e6f2"/><path d="M9.618 13.009l-1.565 1.427s-.122.093-.256.035l.3-2.651" fill="#b6d0e5"/><defs><linearGradient id="A" x1="10" y1=".4" x2="10" y2="19.53" gradientUnits="userSpaceOnUse"><stop stop-color="#42bde9"/><stop offset="1" stop-color="#23a8dd"/></linearGradient></defs></svg>