<svg xmlns="http://www.w3.org/2000/svg" width="35" height="34" fill="none"><g clip-path="url(#B)"><path d="M17.667 33.8c9.278 0 16.8-7.522 16.8-16.8S26.945.2 17.667.2.867 7.721.867 17s7.522 16.8 16.8 16.8z" fill="url(#A)"/><path d="M25.841 9.864l-3.001 15.129s-.42 1.049-1.574.546l-6.924-5.308-2.518-1.217-4.238-1.427s-.65-.231-.713-.735.735-.776.735-.776l16.85-6.61c-.001 0 1.384-.609 1.384.398z" fill="#fff"/><path d="M13.81 24.823s-.202-.019-.454-.816l-1.532-4.994 10.177-6.463s.587-.357.567 0c0 0 .105.063-.21.357s-7.995 7.197-7.995 7.197" fill="#d3e6f2"/><path d="M16.997 22.265l-2.739 2.497s-.214.162-.448.06l.524-4.639" fill="#b6d0e5"/></g><defs><linearGradient id="A" x1="17.667" y1=".2" x2="17.667" y2="33.677" gradientUnits="userSpaceOnUse"><stop stop-color="#42bde9"/><stop offset="1" stop-color="#23a8dd"/></linearGradient><clipPath id="B"><rect x=".867" y=".2" width="33.6" height="33.6" rx="5.436" fill="#fff"/></clipPath></defs></svg>