<svg xmlns="http://www.w3.org/2000/svg" width="34" height="34" fill="none"><path d="M33.133 32.218a1.59 1.59 0 0 1-1.582 1.582H1.816a1.59 1.59 0 0 1-1.582-1.582V2.482A1.59 1.59 0 0 1 1.816.9h29.737a1.59 1.59 0 0 1 1.582 1.582v29.736h-.001z" fill="#3b60a5"/><path d="M26.863 21.476a.59.59 0 0 0 .592-.592l.003-4.774c0-.157-.063-.307-.174-.418a.59.59 0 0 0-.418-.172h-4.428v-2.793c0-1.343.32-2.024 2.068-2.024l2.537-.001a.59.59 0 0 0 .592-.592V5.679a.59.59 0 0 0-.589-.593l-3.765-.005c-4.23 0-6.965 2.804-6.965 7.146v3.295h-3.787a.59.59 0 0 0-.592.592v4.774c0 .326.266.592.592.592h3.786v12.324h6.123V21.479h4.427v-.003z" fill="#fff"/></svg>