<svg xmlns="http://www.w3.org/2000/svg" width="18" height="20" fill="#fff"><path d="M16.328 11.333c-.468 3.821-3.225 4.06-3.736 4.227-.217.072-2.227.577-4.759.41l-2.738 3.006-.005-3.464-.019-.005c-3.683-1.035-3.558-4.924-3.519-6.961s.419-3.712 1.543-4.833C5.109 1.863 9.27 2.14 9.27 2.14c3.51.014 5.192 1.088 5.583 1.446 1.297 1.121 1.957 3.812 1.475 7.748zm-.516-8.702C15.349 2.202 13.488.833 9.337.813c0 0-4.894-.301-7.28 1.918C.731 4.077.264 6.047.211 8.49S.1 15.508 4.453 16.748h.005v1.894s-.029.768.472.921c.603.191.955-.391 1.533-1.021l1.08-1.236c2.98.253 5.27-.329 5.525-.41.603-.2 4.002-.639 4.556-5.215.564-4.723-.285-7.705-1.813-9.05zm-2.656 9.275l-.829-.673a10.35 10.35 0 0 0-.892-.577c-.41-.229-.829-.086-1.003.143l-.361.458c-.183.234-.468.191-.54.177-.53-.134-1.094-.458-1.673-1.011s-.94-1.14-1.065-1.746l-.01-.038c-.034-.248.01-.363.111-.534l.019-.014c.241-.224.694-.496.752-.754.178-.448-.593-1.388-.699-1.551 0 0-.559-.73-.757-.873-.212-.177-.545-.277-.882-.072l-.019.014c-.964.644-1.311 1.016-1.215 1.565l.048.224c.487 1.522 1.432 3.144 2.835 4.59 1.389 1.427 2.893 2.281 4.373 2.872.386.129.786.019 1.196-.329l.005-.005c.313-.291.564-.601.747-.935v-.005c.188-.367.125-.701-.14-.925zm-2.305-3.335c-.058 0-.106-.048-.111-.105-.019-.396-.125-.697-.318-.897s-.477-.31-.853-.334c-.063-.005-.106-.057-.106-.119s.053-.11.116-.105c.434.024.767.157.998.401s.362.592.381 1.045c.005.062-.043.114-.106.119m1.094.367c-.063 0-.111-.052-.111-.114.019-.759-.207-1.398-.665-1.904a2.37 2.37 0 0 0-.825-.592c-.318-.143-.694-.229-1.104-.258-.063-.005-.106-.057-.101-.119s.058-.11.121-.105c.882.067 1.581.377 2.078.926s.743 1.245.723 2.061c-.005.057-.053.105-.116.105z"/><path d="M13.069 9.392c-.063 0-.111-.048-.111-.11-.005-.668-.106-1.274-.304-1.799a3.85 3.85 0 0 0-.877-1.364c-.386-.382-.829-.673-1.306-.868a4.22 4.22 0 0 0-1.596-.296c-.063 0-.111-.052-.111-.114s.048-.11.111-.11c1.215.01 2.242.42 3.057 1.226.41.406.723.892.931 1.446s.313 1.183.318 1.88c0 .057-.048.105-.111.11z"/></svg>