<svg xmlns="http://www.w3.org/2000/svg" xmlns:xlink="http://www.w3.org/1999/xlink" width="138" height="48" fill="none"><style><![CDATA[.B{fill:#fbe24f}.C{fill:#ff3776}.D{fill:#fdf0a2}.E{opacity:.29}.F{fill:#ff709d}.G{fill:#e60048}.H{fill:#eace47}.I{fill:#fb3c58}.J{opacity:.1}.K{fill:#965353}]]></style><g clip-path="url(#A)"><path d="M73.266 44.221l-.156-.331c.033-.015 3.153-1.557 3.153-4.856 0-.959-.395-1.895-1.114-2.659-1.484.959-3.385 1.499-5.344 1.48-1.847-.015-2.83-.904-2.848-1.778-.018-.775.762-1.723 3.008-1.84 2.115-.114 3.966.481 5.232 1.668.388-.272.74-.577 1.052-.907 1.161-1.23 1.702-2.759 1.607-4.544-.109-2.086-.729-3.732-1.868-4.944-2.398 2.175-5.888 3.416-9.64 3.177-3.962-.25-5.308-1.627-5.246-2.836.091-1.734 3.055-3.493 7.699-3.295 3.207.136 5.606.959 7.18 2.457 1.361-1.311 2.322-2.946 2.703-4.786.468-2.259-.065-4.466-1.506-6.211a9.6 9.6 0 0 0-.486-.54c-2.442 1.322-5.896 2.707-10.518 3.541-6.262 1.124-9.741-.132-10.906-1.686a2.31 2.31 0 0 1-.258-2.476c.747-1.583 3.45-3.324 8.784-3.475 5.776-.158 10.322 1.128 12.96 3.644 3.073-1.704 4.43-3.258 4.455-3.287l.276.239c-.025.029-1.386 1.594-4.463 3.317a9 9 0 0 1 .435.485c1.513 1.833 2.075 4.151 1.582 6.523-.395 1.91-1.393 3.607-2.801 4.966 1.204 1.278 1.865 3.001 1.981 5.161.098 1.862-.493 3.53-1.709 4.819a7.1 7.1 0 0 1-1.056.915c.758.823 1.172 1.829 1.172 2.865 0 3.541-3.327 5.179-3.36 5.194zm-2.801-9.627a7.14 7.14 0 0 0-.483.015c-1.861.099-2.678.808-2.663 1.466.014.676.892 1.403 2.489 1.418 1.858.029 3.661-.481 5.076-1.374-1.096-.992-2.645-1.524-4.419-1.524zm-2.376-11.68c-4.227 0-6.556 1.671-6.621 2.961-.051.984 1.205 2.215 4.905 2.45 3.643.231 7.031-.97 9.361-3.071-1.506-1.425-3.81-2.193-6.944-2.325a15.18 15.18 0 0 0-.7-.015zM64.755 9.737c-.312 0-.628.004-.947.015-5.17.143-7.764 1.781-8.468 3.265a1.93 1.93 0 0 0 .218 2.094c1.099 1.466 4.452 2.641 10.554 1.546 4.521-.812 7.902-2.156 10.308-3.445-2.431-2.259-6.502-3.475-11.664-3.475z" fill="#ffee76"/><path d="M80.004 5.723s-.287.507-.907 1.403a37.29 37.29 0 0 1-2.939 3.691 37.63 37.63 0 0 1-5.41 4.933c-2.268 1.69-5.054 3.328-8.359 4.459-1.654.547-3.458.966-5.366.907-.951-.04-1.937-.202-2.845-.672-.45-.235-.878-.558-1.204-.992s-.523-.984-.515-1.546.185-1.102.464-1.565c.272-.47.642-.87 1.038-1.223.806-.705 1.752-1.208 2.736-1.605.99-.393 2.024-.676 3.084-.878s2.137-.312 3.214-.411c2.166-.187 4.386-.279 6.632-.048 1.121.117 2.249.327 3.349.698 1.092.367 2.173.944 3.015 1.826.849.882 1.339 2.101 1.429 3.313.051.606.025 1.212-.054 1.807-.036.301-.091.584-.156.893-.058.275-.145.573-.236.867-.769 2.292-2.253 4.239-3.969 5.848-1.734 1.601-3.744 2.902-5.95 3.732-1.107.4-2.257.694-3.45.746-.595.022-1.208-.022-1.807-.202-.588-.184-1.197-.533-1.546-1.139-.356-.602-.337-1.355-.109-1.947.225-.606.617-1.102 1.06-1.513.892-.819 1.988-1.308 3.095-1.609 2.217-.555 4.513-.562 6.672-.099 1.081.235 2.13.599 3.098 1.113s1.854 1.201 2.532 2.068c.686.86 1.114 1.928 1.201 3.008l.018.202c.007.088.004.136.004.202v.389a6.5 6.5 0 0 1-.076.804 6.33 6.33 0 0 1-.45 1.513c-.425.959-1.078 1.774-1.821 2.435s-1.582 1.175-2.438 1.59c-.86.408-1.741.72-2.627.944l-1.328.268-.664.081-.682.011c-.45-.029-.911-.117-1.317-.367a1.41 1.41 0 0 1-.512-.514c-.127-.217-.178-.477-.152-.724.054-.496.348-.889.678-1.164.33-.286.715-.474 1.103-.606.776-.272 1.578-.305 2.326-.297.755.011 1.491.092 2.184.264 1.386.327 2.62 1.109 3.251 2.215.323.54.501 1.128.584 1.693.076.569.084 1.113.007 1.627-.152 1.029-.566 1.873-.994 2.535-.435.665-.889 1.168-1.273 1.554a10.86 10.86 0 0 1-.929.823l-.341.254.334-.261c.218-.18.53-.452.907-.841s.813-.904 1.226-1.572.798-1.506.929-2.509c.113-.988.011-2.171-.62-3.199-.617-1.036-1.796-1.759-3.142-2.053-.671-.158-1.389-.22-2.122-.22-.74.007-1.495.055-2.209.32-.356.129-.697.309-.98.558-.283.242-.504.569-.537.918s.163.676.49.86c.323.191.726.276 1.136.294s.827-.026 1.259-.099l1.288-.276a13.81 13.81 0 0 0 2.532-.94c.82-.408 1.611-.911 2.308-1.543s1.288-1.392 1.665-2.274c.758-1.745.609-3.985-.678-5.524-1.263-1.561-3.244-2.498-5.293-2.935-2.064-.433-4.274-.419-6.371.114-1.03.283-2.039.746-2.815 1.466-.385.356-.708.782-.878 1.253s-.171.973.065 1.37c.228.4.671.676 1.161.826s1.038.187 1.582.165c1.089-.051 2.188-.33 3.236-.716 2.097-.797 4.038-2.064 5.7-3.607s3.08-3.405 3.799-5.532l.221-.808.145-.819c.076-.555.102-1.109.058-1.657-.08-1.091-.497-2.13-1.237-2.905s-1.709-1.311-2.739-1.66-2.115-.562-3.204-.68c-2.18-.231-4.372-.151-6.505.026-2.148.173-4.23.474-6.142 1.208-.947.371-1.847.845-2.59 1.48-.733.628-1.328 1.469-1.342 2.373-.011.444.141.878.403 1.234s.628.643 1.027.86c.805.43 1.734.599 2.638.646 1.825.073 3.595-.312 5.221-.834 3.262-1.087 6.048-2.656 8.327-4.29a37.58 37.58 0 0 0 5.464-4.812c1.382-1.48 2.369-2.736 3.011-3.618l.929-1.381z" class="I"/><path d="M71.42 22.722c.602-.246 1.39-.672 2.739-1.124.221-.242-.047-1.554.171-1.763.588-.569 1.273-.209 1.531-.962.207-.61-.04-1.264-.722-1.241.221-.602-.327-1.403-.918-1.161-.152-.962-1.117-1.08-1.448-.18-.196.081-1.691.944-2.086 1.102s-.337.191-.098 1.37l.831 3.96z" fill="#e1e8ed"/><path d="M71.619 22.641l2.373-.962s-.45-5.186-1.346-4.823l-2.068.841 1.041 4.944z" fill="#ffac33"/><path d="M71.815 22.56l1.977-.804s-.247-3.063-.954-4.727l-1.977.804.954 4.727z" fill="#ffd983"/><path d="M72.805 22.16l.196-.081-1.041-4.948-.196.081 1.041 4.948z" fill="#ffac33"/><path d="M74.188 21.598l.994-2.703c-.174-.441-.896-1.682-1.948-2.02l.954 4.724z" fill="#e1e8ed"/><path d="M73.06 16.43c.109-.301.9-.621 1.052.338.196-.081.965.118.831.94.196-.081.831.94.522 1.322-1.462-1.958-2.405-2.601-2.405-2.601z" fill="#fff"/><path d="M74.021 19.119c.2.386.599.885 1.034.58a2.05 2.05 0 0 0 .769-1.271c.018-.294-.171-.525-.922-.444-.497.051-1.252-.195-.99.83l.109.305z" fill="#dd2e44"/><g fill="#f4abba"><path d="M75.055 18.593c.014.033.04.063.076.073l.174.055c.058.018.116-.015.131-.077s-.022-.129-.08-.147l-.174-.055c-.058-.018-.116.015-.131.077-.007.026-.007.051.004.073zm-.482.812c.004.011.007.018.014.026.036.051.105.066.152.029l.167-.132c.047-.037.054-.11.018-.162s-.105-.066-.152-.029l-.167.132a.12.12 0 0 0-.033.136zm-.399-.955c.007.018.022.037.036.051l.156.128c.047.04.116.033.149-.018s.022-.125-.029-.165l-.156-.129c-.047-.04-.116-.033-.149.018-.018.033-.022.077-.007.114z"/></g><path d="M58.569 22.604c.348.356-.207 1.168-1.049 2.006s-1.651 1.385-1.999 1.028-.403-1.491.588-2.479 2.115-.911 2.46-.555z" fill="#ffd2a6"/><path d="M59.915 24.801l-2.242 2.237-2.376-1.469 1.604-1.594 1.604-1.598 1.411 2.424z" class="K"/><g fill="#7f4545"><path d="M57.578 23.985c-.062 0-.112.051-.112.114a.12.12 0 0 0 .025.073l1.023 1.212c.022.026.051.04.084.04.062 0 .112-.051.112-.114 0-.029-.011-.055-.025-.073l-1.023-1.212c-.022-.026-.051-.04-.083-.04zm.559-.558c-.062 0-.112.051-.112.114 0 .022.007.044.018.063l.864 1.374c.018.033.054.051.094.051.062 0 .112-.051.112-.114 0-.022-.007-.044-.018-.062l-.864-1.374c-.018-.033-.054-.051-.094-.051zm-.275 2.589l-1.346-.896c-.018-.011-.04-.018-.062-.018-.062 0-.113.051-.113.114 0 .04.018.077.051.096l1.342.896c.018.011.04.018.062.018.062 0 .113-.051.113-.114.004-.04-.018-.073-.047-.095zm.41-.389l-1.183-1.054c-.018-.018-.044-.029-.072-.029-.062 0-.113.051-.113.114 0 .033.015.066.04.085l1.183 1.054c.018.018.044.029.072.029.062 0 .113-.051.113-.114 0-.033-.015-.066-.04-.085z"/></g><path d="M56.135 21.829c-.566.022-1.11.173-1.299.36-.112.11-.091.224-.036.294.316.393.25.635.167.937-.094.342-.199.727.254 1.326.047.062.112.096.189.103.221.015.573-.217 1.07-.713.294-.294.62-.661.892-1.01.432-.551.432-.661.435-.701s-.015-.07-.036-.096c-.464-.47-1.223-.514-1.636-.5z" class="K"/><g fill="#7f4545"><path d="M56.563 21.84c.047.055.174.22.283.481a2.01 2.01 0 0 1 .149.599 2.35 2.35 0 0 1-.036.709l.268-.316a2.73 2.73 0 0 0-.007-.415 2.36 2.36 0 0 0-.167-.665 2.53 2.53 0 0 0-.178-.349l-.312-.044zm-.429-.011l-.196.011a4.07 4.07 0 0 1 .276.845 3.28 3.28 0 0 1 .062.929c-.029.345-.123.665-.276.955a4.65 4.65 0 0 0 .381-.338 2.76 2.76 0 0 0 .116-.602 3.49 3.49 0 0 0-.065-.999 4.29 4.29 0 0 0-.254-.804c-.014.004-.029.004-.044.004zm-.928.161c.072.103.236.367.323.742a2.25 2.25 0 0 1 .033.882c-.054.353-.189.709-.399 1.058l.058.077c.029.037.065.066.109.085.243-.393.395-.793.457-1.194a2.51 2.51 0 0 0-.04-.973c-.083-.345-.221-.599-.312-.742l-.228.066z"/></g><path d="M54.919 23.394c-.036.037-.094.044-.138.015-.004 0-.116-.073-.294-.088-.236-.022-.468.055-.689.235-.047.04-.12.029-.16-.018s-.029-.121.018-.162c.341-.275.66-.305.864-.283.228.026.374.118.381.121.051.033.069.103.033.158-.004.007-.011.015-.015.022z" fill="#434a54"/><path d="M55.238 22.913c.218.224.214.584-.007.804s-.577.217-.795-.007-.214-.584.007-.804.577-.217.794.007z" fill="#ed5564"/><g fill="#a0d468"><use xlink:href="#B"/><path d="M55.565 21.789c-.044.044-.044.118 0 .162s.116.044.16 0 .044-.118 0-.162-.112-.044-.16 0zm-.323.639c-.044.044-.044.117 0 .162s.116.044.16 0 .044-.117 0-.162-.116-.044-.16 0zm-.41 1.686c-.044.044-.044.117 0 .162s.116.044.16 0 .044-.117 0-.162-.112-.044-.16 0zm.399-.235c-.044.044-.044.118 0 .162s.116.044.16 0 .044-.118 0-.162-.116-.044-.16 0z"/><path d="M55.398 23.075c-.044.044-.044.117 0 .162s.116.044.16 0 .044-.118 0-.162-.116-.044-.16 0zm.482-.64c-.044.044-.044.117 0 .162s.116.044.16 0 .044-.117 0-.162-.116-.044-.16 0zm.153.805c-.044.044-.044.117 0 .162s.116.044.16 0 .043-.117 0-.162-.116-.044-.16 0zm-.163.643c-.044.044-.044.117 0 .162s.116.044.16 0 .043-.118 0-.162-.116-.044-.16 0zm.801-.959c-.044.044-.044.117 0 .162s.116.044.16 0 .043-.117 0-.162-.116-.044-.16 0zm.642-.639c-.044.044-.044.118 0 .162s.116.044.16 0 .044-.117 0-.162-.116-.044-.16 0z"/></g><path d="M70.099 43.247l.947-1.477c.141-.224.076-.522-.145-.665a.47.47 0 0 0-.66.14l-1.371 2.138a.48.48 0 0 0-.007.507l1.237-.643z" class="D"/><path d="M67.773 43.717a.07.07 0 0 0 .04.077s.508.206.791.062.417-.683.417-.683c.007-.029-.011-.066-.04-.077 0 0-.508-.206-.791-.062s-.417.683-.417.683z" fill="#009e7a"/><path d="M68.978 43.096c-.065.165-.181.382-.345.466-.272.14-.758-.048-.791-.062l-.073.217a.07.07 0 0 0 .04.077s.508.206.791.062.417-.683.417-.683c.007-.029-.011-.066-.04-.077z" fill="#000" class="J"/><path d="M68.278 43.507c.029.059.098.081.156.051l.555-.286.029-.096c.007-.029-.011-.066-.04-.077l-.094-.033-.555.286c-.054.026-.08.096-.051.154z" fill="#1e8574"/><path d="M69.062 42.024l.116.044c.04-.169.062-.389-.014-.544-.145-.286-.675-.422-.675-.422-.029-.007-.065.011-.076.04 0 0-.203.514-.062.801.015.026.029.051.051.077.181-.07.417-.077.66.004z" fill="#009e7a"/><path d="M68.648 41.969c-.014-.018-.029-.04-.04-.062-.116-.231-.007-.61.04-.749l-.163-.055c-.029-.007-.065.011-.076.04 0 0-.203.514-.062.801.014.026.029.051.051.077.076-.029.16-.048.25-.051z" fill="#000" class="J"/><path d="M69.025 42.012l-.174-.342c-.029-.059-.098-.081-.156-.051s-.08.099-.051.158l.094.191a.99.99 0 0 1 .287.044z" fill="#1e8574"/><path d="M69.21 42.005l-.127-.051c-.446-.147-.874-.007-.98.316s.163.691.61.837a1.18 1.18 0 0 0 .334.059 4.88 4.88 0 0 0 .163-1.161z" fill="#ff3d6c"/><g class="J"><path d="M69.09 42.986l-.087-.026c-.446-.147-.715-.514-.609-.837a.49.49 0 0 1 .127-.202c-.203.048-.363.173-.417.349-.105.323.163.691.61.838.109.037.225.055.334.059.014-.048.029-.11.043-.18z" fill="#000" class="J"/></g><g fill="#ff1b52"><path d="M68.84 42.328c-.025.015-.058.015-.087.007s-.054-.029-.069-.059-.018-.059-.007-.088.029-.055.058-.066.058-.015.087-.007.054.029.065.059.018.059.007.088a.12.12 0 0 1-.054.066zm-.159.492c-.025.015-.058.015-.087.007s-.054-.029-.065-.059-.018-.059-.007-.088.029-.055.058-.066.058-.015.087-.007.054.029.065.059.015.059.007.088-.033.051-.058.066zm-.2-.337c-.025.015-.058.015-.087.007s-.054-.029-.065-.059-.018-.059-.007-.088.029-.055.058-.066.058-.018.087-.007.054.029.065.059.018.059.007.088-.033.051-.058.066z"/></g><g class="B"><path d="M68.989 43.258l1.201-1.873c-.25-.713-1.578-.65-1.194-.147.417.547-.025 2.017-.025 2.017l.018.004zm2.692-.827l.116-.18a.49.49 0 0 0-.141-.672c-.221-.147-.519-.081-.664.143l-1.02 1.59 1.709-.882z"/></g><path d="M72.407 42.589l-.123-.246c-.058-.117-.203-.165-.319-.106l-3.193 1.649c-.116.059-.163.206-.105.323l.123.246 3.617-1.866z" fill="#ff4975"/><path d="M69.232 43.651l-.461.239c-.116.059-.163.206-.105.323l.123.246.461-.239-.123-.246c-.058-.117-.011-.264.105-.323z" fill="#000" class="J"/><g fill="#a8734c"><path d="M68.666 44.419c-.036.018-.04.059-.007.084l1.912 1.543c.033.026.091.033.127.015l.29-.151-1.691-1.818-.631.327zm3.784-1.955l-.635.327.461 2.454.29-.151c.036-.018.065-.07.065-.114l-.109-2.476c0-.044-.033-.062-.073-.04z"/></g><g fill="#d89864"><path d="M70.865 45.891l-1.912-1.543c-.033-.026-.029-.066.007-.084l-.294.151c-.036.018-.04.059-.007.084l1.912 1.543c.033.026.091.033.127.015l.294-.151c-.036.018-.094.015-.127-.015z"/><path d="M69.301 44.088l1.687 1.818.432-.22-1.277-2.031-.842.433zm1.672-.864l.871 2.241.432-.22-.461-2.454-.842.433z"/></g><path d="M70.143 43.654l1.277 2.031.424-.22-.871-2.241-.831.43z" fill="#a8734c"/><path d="M59.991 5.598l.744-5.219s.747-.757 2.641-.132c1.542.507 1.85 1.719 1.85 1.719l-5.235 3.633z" fill="#fff39c"/><path d="M60.071 8.353l-.08-2.755 5.235-3.629-.675 3.111-4.481 3.273z" class="I"/><path d="M60.071 8.353l-.018-.68 4.648-3.28-.149.687-4.481 3.273z" fill="#b5475c"/><path d="M62.78 2.021c.349-.263.425-.757.171-1.103s-.744-.415-1.093-.152-.425.757-.171 1.103.744.415 1.093.152z" fill="#ff3d6c"/><path d="M62.042 1.021c.079-.059.118-.14.089-.181s-.118-.026-.197.034-.119.14-.089.181.118.026.197-.034z" fill="#ff7058"/><path d="M61.98.955c-.025.018-.065.011-.083-.011-.134-.18-.087-.422.091-.555.025-.018.065-.011.083.011s.011.066-.011.084a.28.28 0 0 0-.058.4c.007.007.015.04-.022.07z" fill="#40596b"/><path d="M67.15 6.16c-.076-.077-.116-.04-.192-.118 0 0-.171.294-.145.573l.065.066.312-.47a.25.25 0 0 0-.04-.051z" class="F"/><path d="M67.454 6.472c-.018-.018-.036-.029-.051-.04l-.464.316.065.066c.276.026.566-.147.566-.147-.076-.081-.036-.118-.116-.195z" class="G"/><path d="M67.262 6.354c-.058-.059-.051-.096-.076-.143l-.312.47.065.066.464-.316c-.047-.026-.083-.018-.141-.077z" class="C"/><path d="M65.575 8.375c.076.077.116.04.192.118 0 0 .171-.294.145-.573l-.065-.066-.312.47c.011.015.022.033.04.051z" class="G"/><path d="M65.317 8.103c.047.026.083.018.141.077s.051.096.076.143l.312-.47-.065-.066-.464.316z" class="C"/><g class="F"><path d="M65.716 7.72c-.276-.026-.566.147-.566.147.076.077.04.118.116.195.018.018.036.029.051.04l.464-.316-.065-.066z"/><path d="M67.146 7.265a.79.79 0 0 0-.784-.793c-.109 0-.214.022-.308.062-.247.489-.025 1.179.617 1.462.279-.121.475-.404.475-.731z"/></g><path d="M65.579 7.265a.79.79 0 0 0 .784.793c.109 0 .214-.022.308-.062-.515-.522-.102-.94-.617-1.462a.8.8 0 0 0-.475.731z" class="C"/><use xlink:href="#C" class="D"/><use xlink:href="#D" class="H"/><path d="M81.447 7.853c-.022-.07 0-.095 0-.143l-.432.228.022.077.486-.048c-.025-.037-.055-.044-.076-.114z" class="B"/><path d="M79.322 8.69c.025.092.073.077.098.169 0 0 .254-.154.348-.378l-.022-.077-.432.228c0 .018 0 .033.007.059z" class="H"/><path d="M79.238 8.371c.025.04.058.048.076.118s0 .096 0 .143l.432-.228-.022-.077-.486.044z" class="B"/><g class="D"><path d="M79.702 8.246c-.2-.136-.493-.125-.493-.125.025.092-.018.107.007.198.007.022.014.04.022.051l.486-.048-.022-.077z"/><path d="M80.983 8.503c.181-.334.058-.757-.276-.94-.084-.048-.174-.073-.265-.081-.392.272-.504.893-.127 1.377.265.026.533-.107.668-.356z"/></g><path d="M79.782 7.842c-.181.334-.058.757.276.94.084.048.174.073.261.081-.178-.617.308-.764.127-1.377-.265-.029-.53.103-.664.356z" class="B"/><use xlink:href="#E" class="F"/><use xlink:href="#F" class="G"/><use xlink:href="#G" class="C"/><use xlink:href="#H" class="G"/><use xlink:href="#I" class="C"/><g class="F"><use xlink:href="#J"/><use xlink:href="#K"/></g><use xlink:href="#L" class="C"/><g fill="#fff" class="E"><use xlink:href="#E" class="E"/><use xlink:href="#F" class="E"/><use xlink:href="#G" class="E"/><use xlink:href="#H" class="E"/><use xlink:href="#I" class="E"/><use xlink:href="#J" class="E"/><use xlink:href="#K" class="E"/><use xlink:href="#L" class="E"/></g><path d="M74.112 39.166c-.076-.077-.116-.04-.192-.118 0 0-.171.294-.145.573l.065.066.312-.47c-.007-.015-.022-.033-.04-.051z" class="F"/><path d="M74.42 39.478c-.018-.018-.036-.029-.051-.04l-.464.316.065.066c.276.026.566-.147.566-.147-.076-.077-.04-.118-.116-.195z" class="G"/><path d="M74.228 39.361c-.058-.059-.051-.096-.076-.143l-.312.47.065.066.464-.316c-.047-.026-.084-.015-.142-.077z" class="C"/><path d="M72.541 41.384c.076.077.116.04.192.117 0 0 .171-.294.145-.573l-.065-.066-.312.47c.007.015.018.033.04.051z" class="G"/><path d="M72.283 41.113c.047.026.084.018.142.077s.051.096.076.143l.312-.47-.065-.066-.464.316z" class="C"/><g class="F"><path d="M72.682 40.727c-.276-.026-.566.147-.566.147.076.077.04.117.116.195.018.018.036.029.051.04l.464-.316-.065-.066z"/><path d="M74.112 40.275a.79.79 0 0 0-.784-.793c-.109 0-.214.022-.308.063-.247.488-.025 1.179.617 1.462.279-.121.475-.404.475-.731z"/></g><path d="M72.541 40.275a.79.79 0 0 0 .784.793c.109 0 .214-.022.308-.062-.515-.522-.102-.94-.617-1.462-.279.121-.475.404-.475.731z" class="C"/><path d="M74.293 46.792c-.025-.092-.073-.077-.098-.169 0 0-.254.154-.348.375l.022.077.432-.228c0-.015 0-.033-.007-.055z" class="D"/><path d="M74.399 47.159c-.007-.022-.014-.04-.022-.051l-.486.048.022.077c.2.136.493.125.493.125-.025-.092.022-.103-.007-.198z" class="H"/><path d="M74.3 46.99c-.022-.07 0-.096 0-.143l-.432.228.022.077.486-.048c-.025-.037-.054-.044-.076-.114z" class="B"/><path d="M72.175 47.828c.025.092.073.077.098.169 0 0 .254-.154.348-.378l-.022-.077-.432.228c0 .018.004.033.007.059z" class="H"/><path d="M72.091 47.508c.025.04.058.048.076.118s0 .095 0 .143l.432-.228-.022-.077-.486.044z" class="B"/><g class="D"><path d="M72.556 47.383c-.2-.136-.493-.125-.493-.125.025.092-.018.106.007.198.007.022.014.04.022.051l.486-.048-.022-.077z"/><path d="M73.836 47.64c.181-.334.058-.757-.276-.94-.084-.048-.174-.073-.265-.081-.392.272-.504.893-.127 1.377.265.026.533-.106.668-.356z"/></g><path d="M72.635 46.979c-.181.334-.058.757.276.94.083.048.174.074.261.081-.178-.617.308-.764.127-1.377-.265-.029-.53.103-.664.356z" class="B"/><path d="M78.364 37.003c.047-.04.029-.066.076-.103 0 0-.156-.114-.312-.118l-.04.033.247.206c.007 0 .015-.007.029-.018z" class="D"/><path d="M78.171 37.164l.025-.026-.152-.286-.04.033c-.029.154.051.334.051.334.047-.04.065-.015.116-.055z" class="H"/><path d="M78.248 37.058c.036-.029.058-.022.083-.037l-.247-.206-.04.033.152.286c.014-.026.014-.048.051-.077z" class="B"/><path d="M77.21 35.974c-.047.04-.029.066-.076.103 0 0 .156.114.312.117l.04-.033-.247-.206c-.007.004-.018.007-.029.018z" class="H"/><path d="M77.377 35.842c-.018.026-.015.048-.051.077s-.058.022-.083.037l.247.206.04-.033-.152-.286z" class="B"/><g class="D"><path d="M77.569 36.096c.029-.158-.051-.334-.051-.334-.047.04-.069.015-.116.055l-.025.026.152.287.04-.033z"/><path d="M77.74 36.941a.45.45 0 0 0 .49-.404c.007-.062 0-.125-.018-.18-.261-.169-.66-.081-.853.272a.45.45 0 0 0 .381.312z"/></g><path d="M77.831 36.041a.45.45 0 0 0-.49.404c-.007.063 0 .125.018.18.323-.264.533-.007.853-.272-.051-.165-.196-.294-.381-.312z" class="B"/><path d="M67.872 12.882c-.102-.107-.152-.051-.254-.158 0 0-.229.393-.196.764l.087.088.417-.628c-.015-.018-.029-.04-.055-.066z" class="D"/><path d="M68.278 13.3c-.025-.026-.047-.04-.065-.051l-.617.422.087.088c.363.037.747-.195.747-.195-.102-.107-.051-.158-.152-.264z" class="H"/><path d="M68.024 13.142c-.076-.081-.065-.129-.102-.195l-.417.628.087.088.617-.422c-.062-.029-.109-.018-.185-.099z" class="B"/><path d="M65.782 15.842c.102.107.152.051.254.158 0 0 .229-.393.196-.768l-.087-.088-.417.628a.28.28 0 0 0 .054.07z" class="H"/><path d="M65.44 15.475c.062.037.112.026.189.103s.065.129.102.195l.417-.628-.087-.088-.62.419z" class="B"/><g class="D"><path d="M65.97 14.964c-.363-.037-.751.195-.751.195.102.106.051.158.152.261.025.026.047.04.065.051l.617-.422-.083-.085z"/><path d="M67.864 14.366c.004-.588-.461-1.065-1.034-1.065-.145 0-.283.029-.41.085-.33.654-.036 1.579.809 1.958.374-.162.635-.54.635-.977z"/></g><path d="M65.789 14.358c-.004.588.461 1.065 1.034 1.065.145 0 .283-.029.406-.085-.678-.702-.131-1.256-.809-1.958-.37.162-.631.54-.631.977z" class="B"/><path d="M54.03 10.498c.04-.103-.011-.125.033-.224 0 0-.334-.048-.577.085l-.036.088.548.11c.011-.015.022-.033.033-.059z" class="F"/><path d="M53.863 10.905c.011-.026.014-.044.018-.062l-.468-.312-.036.088c.083.264.352.47.352.47.043-.103.094-.081.134-.184z" class="G"/><path d="M53.896 10.681c.033-.077.069-.085.102-.125l-.548-.11-.036.088.468.312c.004-.055-.018-.088.014-.165z" class="C"/><path d="M51.403 9.88c-.04.103.011.125-.033.224 0 0 .334.048.58-.084l.036-.085-.552-.11c-.011.011-.022.029-.033.055z" class="G"/><path d="M51.556 9.535c-.007.055.014.084-.015.162s-.069.084-.101.125l.551.11.036-.088-.472-.309z" class="C"/><g class="F"><path d="M52.057 9.763c-.08-.268-.352-.474-.352-.474-.04.103-.091.081-.134.184-.011.026-.014.044-.018.062l.468.312.036-.084z"/><path d="M53.018 10.924c.399-.169.588-.632.425-1.04-.044-.103-.102-.191-.178-.264-.541-.044-1.085.43-1.096 1.139.218.213.551.29.849.165z"/></g><path d="M52.415 9.455c-.399.169-.588.632-.425 1.039.044.103.102.191.178.264.279-.679.816-.455 1.096-1.139-.218-.213-.548-.29-.849-.165z" class="C"/><g class="I"><path d="M56.885 8.367c.589 0 1.067-.483 1.067-1.08s-.478-1.08-1.067-1.08-1.067.483-1.067 1.08.478 1.08 1.067 1.08z"/><path d="M56.453 6.714s-.16-.062-.388-.184-.515-.316-.773-.555c-.127-.121-.25-.25-.345-.393-.04-.073-.087-.14-.113-.217s-.058-.14-.069-.209l-.033-.184c-.007-.055 0-.103 0-.143l.011-.121.025-.004s.022.04.051.11c.018.033.029.077.051.121l.076.151c.025.055.065.11.094.173s.08.118.116.184.087.129.127.198l.149.195c.214.253.479.466.682.617a3.33 3.33 0 0 0 .352.231l-.014.029z"/></g><use xlink:href="#M" fill="#f8b9c4"/><path d="M51.806 7.203a.72.72 0 0 0 .715-.724.72.72 0 0 0-.715-.724.72.72 0 0 0-.715.724.72.72 0 0 0 .715.724z" fill="#e8ad71"/><path d="M52.517 15.041a.72.72 0 0 0 .715-.724.72.72 0 0 0-.715-.724.72.72 0 0 0-.715.724.72.72 0 0 0 .715.724z" class="I"/><use xlink:href="#N" class="B"/><path d="M58.711 19.085c.355 0 .642-.291.642-.65s-.288-.65-.642-.65-.642.291-.642.65.288.65.642.65z" fill="#fff9c2"/><path d="M64.388 22.259c.579 0 1.048-.475 1.048-1.062s-.469-1.062-1.048-1.062-1.049.475-1.049 1.062.47 1.062 1.049 1.062z" fill="#e8ad71"/><path d="M67.86 22.02a.72.72 0 0 0 .715-.724.72.72 0 0 0-.715-.724.72.72 0 0 0-.715.724.72.72 0 0 0 .715.724z" class="I"/><path d="M80.091 15.126a.72.72 0 0 0 .715-.724.72.72 0 0 0-.715-.724.72.72 0 0 0-.715.724.72.72 0 0 0 .715.724z" fill="#f8b9c4"/><path d="M82.707 12.922c.251 0 .454-.206.454-.459s-.203-.459-.454-.459-.454.206-.454.459.203.459.454.459z" fill="#fff"/><path d="M66.362 27.97c.509 0 .922-.418.922-.933s-.413-.933-.922-.933-.922.418-.922.933.413.933.922.933z" class="B"/><path d="M60.34 15.893c.509 0 .922-.418.922-.933s-.413-.933-.922-.933-.922.418-.922.933.413.933.922.933z" class="K"/><path d="M74.758 30.049l-3.824.294-.087.386 4.706 1.076.087-.386c-.004 0 .102-.944-.882-1.37z" fill="#f5f6f6"/><path d="M70.934 30.341l-.568 2.544 4.707 1.077.568-2.544-4.707-1.077z" fill="#eeb074"/><g fill="#875835"><path d="M75.4 32.488c-.218-.051-.326-.11-.424-.162a1.13 1.13 0 0 0-.337-.129 1.02 1.02 0 0 0-.359-.029 1.43 1.43 0 0 1-.45-.037c-.218-.051-.327-.11-.424-.162a1.13 1.13 0 0 0-.337-.129 1.02 1.02 0 0 0-.359-.029 1.43 1.43 0 0 1-.45-.037c-.218-.051-.326-.11-.424-.162-.087-.048-.163-.088-.337-.128a1.02 1.02 0 0 0-.359-.029c-.109.007-.232.011-.45-.037l.073-.331a1.02 1.02 0 0 0 .359.029c.109-.007.232-.011.45.037s.327.11.424.162c.087.048.163.088.338.129a1.02 1.02 0 0 0 .359.029 1.43 1.43 0 0 1 .45.037c.218.051.327.11.424.162a1.13 1.13 0 0 0 .337.129 1.02 1.02 0 0 0 .359.029 1.43 1.43 0 0 1 .45.037c.218.048.326.11.424.162.087.048.163.088.337.128l-.073.331zm-.192.849c-.218-.052-.327-.11-.424-.162a1.13 1.13 0 0 0-.337-.129 1.02 1.02 0 0 0-.359-.029c-.109.007-.232.011-.45-.037s-.326-.11-.424-.162a1.13 1.13 0 0 0-.337-.129 1.02 1.02 0 0 0-.359-.029c-.109.007-.232.011-.45-.037s-.327-.11-.425-.162a1.13 1.13 0 0 0-.337-.129 1.02 1.02 0 0 0-.359-.029 1.43 1.43 0 0 1-.45-.037l.073-.331a1.02 1.02 0 0 0 .359.029 1.43 1.43 0 0 1 .45.037c.218.051.326.11.424.162a1.12 1.12 0 0 0 .337.129 1.02 1.02 0 0 0 .359.029 1.43 1.43 0 0 1 .45.037c.218.051.327.11.425.162a1.13 1.13 0 0 0 .337.129 1.02 1.02 0 0 0 .359.029 1.43 1.43 0 0 1 .45.037c.218.051.327.11.425.162a1.13 1.13 0 0 0 .337.129l-.073.331z"/></g><g class="I"><path d="M73.858 30.788c.449 0 .813-.368.813-.823s-.364-.823-.813-.823-.813.368-.813.823.364.823.813.823z"/><path d="M74.05 29.455s-.025-.128-.04-.327-.007-.466.044-.731c.025-.132.058-.264.109-.386.029-.059.054-.114.094-.162s.069-.095.105-.129.073-.066.105-.096.065-.044.091-.059l.083-.044.011.015-.051.077c-.014.026-.036.051-.058.084l-.065.11c-.025.04-.044.088-.069.132s-.043.099-.072.151-.047.107-.076.162-.044.117-.065.176c-.073.242-.105.5-.12.694s-.007.327-.007.327l-.018.004z"/></g><g fill="#dd2e44"><path d="M73.281 6.579c-.533.007-1.299.176-1.208.83s.602 1.355.954 1.565c.312.184.668.099.998-.782.218-.58.907-1.289-.352-1.568l-.392-.044z"/><path d="M73.447 5.278l-.306 1.758.44.078.306-1.758-.439-.078z"/></g><g fill="#d8738b"><path d="M73.277 8.025a.15.15 0 0 0-.12.044l-.16.165c-.054.055-.047.14.015.187s.152.044.203-.007l.16-.165c.054-.055.047-.14-.011-.187-.025-.022-.054-.033-.087-.037zm-.616-.987h-.036c-.08.011-.131.081-.116.154l.051.261c.014.073.091.121.167.11s.131-.081.116-.154l-.051-.261c-.011-.062-.065-.107-.131-.11zm1.262.088c-.025-.004-.051 0-.076.011l-.225.103c-.073.033-.098.114-.062.18s.123.092.196.062l.225-.103c.073-.033.098-.114.062-.18-.025-.044-.069-.07-.12-.073z"/></g><path d="M70.143 3.394c.509 0 .922-.418.922-.933s-.413-.933-.922-.933-.922.418-.922.933.413.933.922.933z" class="B"/><path d="M68.669 5.164c.25 0 .454-.206.454-.459s-.203-.459-.454-.459-.454.206-.454.459.203.459.454.459z" fill="#fff"/><g fill="#1e1d1c"><path d="M5.696 17.671c3.196 0 5.25.496 7.514.522-1.074.966-2.471 1.109-3.991 1.109-.537 0-1.096-.022-1.658-.022-1.005 2.527-2.358 6.45-3.664 11.269-.675 2.505-1.168 4.11-1.168 5.671 0 .165 0 .356.022.518-1.4 0-1.843-.683-1.843-1.675 0-.922.468-2.292.863-3.453 1.049-3.093 3.102-8.742 4.76-12.334-3.24.048-4.499.118-6.531.474.116-1.583 2.474-2.079 5.696-2.079zm10.297 14.366c1.215 0 3.011-2.766 3.57-4.845-.141-.143-.232-.331-.232-.569 0-.944.726-1.605.98-1.605.327 0 .327.4.327.569s-.258.779-.258.874c0 .874 2.38 1.275 2.38 3.284 0 1.44-1.168 3.001-1.168 3.993 0 .566.326.709.7.709 1.469 0 3.385-2.149 3.969-3.522l.305.235c-.889 2.009-2.895 4.136-4.88 4.136-1.052 0-1.705-.613-1.705-1.535 0-1.396 1.284-3.166 1.284-4.419 0-1.017-.726-1.37-1.306-1.796-.7 2.152-2.333 5.058-4.107 5.058-.885 0-1.611-.353-1.981-1.087-.98 2.318-2.453 3.923-4.085 3.923-1.19 0-1.865-.852-1.865-2.053 0-2.505 2.87-7.019 5.649-7.019.584 0 .864.213 1.005.496.047-.022.094-.022.163-.022.584 0 .791.636.791.922 0 .591-.907 1.723-.907 2.975-.004.874.388 1.3 1.371 1.3zm-2.358-1.253c-.094-.378-.142-.804-.142-1.348 0-1.065.185-1.748.443-2.152-2.638 0-4.528 4.136-4.528 5.932 0 .731.327 1.205.885 1.205 1.056.004 2.503-1.605 3.342-3.636z"/><path d="M32.9 27.571l-4.107.287h-.348c-.726 1.679-1.284 3.471-1.284 5.15 0 1.37.374 1.892 1.306 1.892 1.611 0 3.244-1.561 4.437-4.04l.301.235c-1.121 2.67-3.218 4.68-5.413 4.68-1.353 0-2.079-.779-2.079-2.34 0-1.392.562-3.544 1.353-5.693-.301-.048-.584-.096-.842-.187v-.426l1.027.095c1.306-3.401 3.102-6.641 4.06-6.641a.5.5 0 0 1 .49.518c0 .826-1.749 3.284-3.102 6.193h.864l3.338-.143v.422z"/><path d="M36.242 27.192c0 .779-2.427 3.64-2.427 5.859 0 1.135.374 1.418 1.143 1.418 1.052 0 2.264-.918 3.595-3.614l.211.235c-.911 2.718-2.776 4.206-4.597 4.206-1.215 0-1.8-.874-1.8-1.983 0-1.796 1.774-6.641 3.363-6.641.276.004.512.191.512.522zm-.236-3.497c0-.661.958-1.227 1.705-1.227.464 0 .769.187.769.731 0 .591-.769 1.278-1.517 1.278-.515 0-.958-.239-.958-.782z"/><path d="M45.671 29.058c0-.661-.562-1.065-1.168-1.065-2.754 0-4.386 6.476-4.666 6.997-.163.283-.512.426-.795.426-.791 0-.816-1.135-.816-2.222 0-4.94 5.417-15.383 7.075-15.383.421 0 .722.683.722 1.535 0 2.175-2.006 5.602-4.76 7.28-1.027 2.553-1.542 5.128-1.542 6.758.98-2.505 2.895-6.615 5.228-6.615 1.143 0 2.079.944 2.079 2.105 0 2.031-2.405 2.766-3.316 2.766.069.518.584 3.049 1.821 3.049 1.332 0 2.496-1.701 3.454-3.853l.232.235c-.675 2.318-2.522 4.514-4.154 4.514-1.774 0-2.38-2.814-2.38-4.253.7-.004 2.986-.665 2.986-2.274zm-4.013-3.375c2.148-1.748 3.57-4.536 3.57-5.741 0-.165-.025-.213-.069-.213-.468 0-2.148 2.784-3.501 5.954zm51.864-8.251c2.311 0 5.018.331 6.117.496-.747.757-1.633.827-2.264.827l-2.543.022c-.305 1.653-1.542 8.647-2.311 11.791-.512 2.035-1.096 3.449-1.963 4.04 1.611.096 3.595.426 5.065.448-.911.922-1.985 1.017-2.638 1.017-2.522.022-4.76-.048-7.024.4.163-1.726 1.843-1.892 3.806-1.892 1.702-3.71 3.291-13.043 4.249-15.809-2.427.048-3.527.143-5.254.474.207-1.201 1.607-1.815 4.76-1.815zm3.784 10.99c.189-.213.631-.496 1.074-.496.421 0 .631.235.631.613 0 .496-.327 1.822-.747 3.118 1.237-1.914 3.08-4.158 4.854-4.158 1.216 0 1.727 1.065 1.727 2.127 0 1.466-.954 2.575-.954 3.735 0 .661.301.896.7.896 1.169 0 2.406-1.936 3.269-3.688l.258.308c-.98 2.318-2.289 3.993-4.038 3.993-1.096 0-1.633-.639-1.633-1.513 0-.97.675-2.174.675-3.284 0-.874-.396-1.157-.932-1.157-1.938 0-4.086 3.754-5.297 5.837-.49 0-.98-.165-1.237-.518-.004-.286 1.629-3.761 1.651-5.814zm10.605 5.576c0-.518.748-.966 1.353-.966.374 0 .606.14.606.566 0 .474-.606 1.039-1.215 1.039-.396-.004-.744-.191-.744-.639zm15.638 2.74c-1.169 0-1.891-1.157-1.891-2.505 0-.426.069-1.205.211-2.152-1.169 2.575-2.779 4.371-5.043 4.371-2.007 0-3.037-1.392-3.037-3.214 0-3.049 2.917-9.568 2.917-13.113 0-1.348-.421-2.079-1.306-2.079-1.684 0-2.475 2.553-2.475 4.088 0 .448.069.874.185 1.157-1.19 0-1.61-.735-1.61-1.631 0-1.961 2.028-4.275 4.455-4.275 1.705 0 2.405 1.135 2.405 2.861 0 3.471-2.87 9.333-2.87 12.617 0 1.466.563 2.645 1.96 2.645 2.568 0 4.223-3.875 4.832-6.402 1.121-4.702 2.801-11.721 4.06-11.721.258 0 .722.287 1.168.757-.794.544-4.295 10.821-4.295 15.262 0 2.174.537 2.766 1.865 2.766-.574.404-1.089.569-1.531.569zm10.583-6.758c0 .544-1.354 2.152-1.354 3.287 0 .47.232 1.039.795 1.039.842 0 2.333-1.23 3.733-3.735l.232.235c-.979 2.553-2.964 4.301-4.622 4.301-1.143 0-1.68-.827-1.68-1.653 0-.187.022-.426.069-.683-1.353 1.818-2.38 2.74-3.526 2.74-.98 0-1.727-.635-1.727-1.961 0-2.814 3.432-7.254 6.465-7.254 1.215 0 2.126.709 2.126 1.77 0 .779-.468 1.018-1.143 1.018.069-.261.116-.569.116-.826 0-.709-.301-1.322-1.142-1.322-2.195 0-4.808 4.393-4.808 6.689 0 .636.211.922.628.922 1.448 0 3.759-3.449 4.902-5.153.283.044.936.231.936.588z"/></g></g><defs><clipPath id="A"><path fill="#fff" d="M0 0h137.538v48H0z"/></clipPath><path id="B" d="M56.592 22.362c-.044.044-.044.117 0 .162s.116.044.16 0 .044-.117 0-.162-.116-.044-.16 0z"/><path id="C" d="M81.44 7.654c-.025-.092-.073-.077-.098-.169 0 0-.254.154-.348.375l.022.077.432-.228c0-.015 0-.033-.007-.055z"/><path id="D" d="M81.546 8.022c-.007-.022-.014-.04-.022-.051l-.486.048.022.077c.2.136.493.125.493.125-.025-.092.022-.103-.007-.198z"/><path id="E" d="M65.622 35.398c.065-.129.004-.162.069-.294 0 0-.435-.103-.769.04l-.058.11.711.209a.39.39 0 0 0 .047-.066z"/><path id="F" d="M65.357 35.916c.014-.033.025-.059.029-.081l-.581-.466-.058.11c.076.36.41.661.41.661.069-.128.131-.096.2-.224z"/><path id="G" d="M65.422 35.622c.051-.099.098-.103.149-.154l-.711-.209-.058.11.581.467c.014-.074-.007-.114.04-.213z"/><path id="H" d="M62.237 34.274c-.065.129-.004.162-.069.294 0 0 .435.103.773-.044l.054-.11-.711-.209c-.015.018-.033.04-.047.07z"/><path id="I" d="M62.473 33.836c-.014.07.011.114-.04.213s-.098.103-.149.154l.711.209.058-.11-.581-.467z"/><path id="J" d="M63.108 34.197c-.076-.36-.41-.665-.41-.665-.065.129-.131.096-.196.224-.014.033-.025.059-.029.081l.58.467.054-.107z"/><path id="K" d="M64.243 35.835c.544-.176.849-.764.675-1.319-.043-.14-.112-.264-.203-.367-.708-.121-1.48.441-1.571 1.37.261.309.689.448 1.099.316z"/><path id="L" d="M63.616 33.837c-.544.176-.849.764-.675 1.319.044.14.112.265.203.367.443-.863 1.128-.507 1.571-1.37a1.03 1.03 0 0 0-1.099-.316z"/><path id="M" d="M56.824 3.342a.72.72 0 0 0 .715-.724.72.72 0 0 0-.715-.724.72.72 0 0 0-.715.724.72.72 0 0 0 .715.724z"/><path id="N" d="M54.945 18.299c.509 0 .922-.418.922-.933s-.413-.933-.922-.933-.922.418-.922.933.413.933.922.933z"/></defs></svg>