<svg xmlns="http://www.w3.org/2000/svg" xmlns:xlink="http://www.w3.org/1999/xlink" width="157" height="55" fill="none"><style><![CDATA[.B{fill:#fbe24f}.C{fill:#ff3776}.D{fill:#fdf0a2}.E{opacity:.29}.F{fill:#ff709d}.G{fill:#e60048}.H{fill:#eace47}.I{fill:#fb3c58}.J{opacity:.1}.K{fill:#965353}]]></style><g clip-path="url(#A)"><path d="M83.633 50.669l-.178-.379c.037-.017 3.599-1.785 3.599-5.564 0-1.099-.451-2.172-1.271-3.047-1.694 1.098-3.864 1.717-6.1 1.696-2.108-.017-3.23-1.035-3.251-2.037-.021-.888.87-1.974 3.433-2.109 2.415-.13 4.527.551 5.972 1.911.443-.311.845-.661 1.201-1.039 1.325-1.41 1.942-3.161 1.835-5.206-.124-2.39-.832-4.276-2.133-5.665-2.738 2.491-6.722 3.914-11.004 3.64-4.523-.286-6.059-1.864-5.989-3.249.103-1.987 3.487-4.002 8.788-3.775 3.661.156 6.399 1.098 8.196 2.816 1.553-1.503 2.651-3.375 3.085-5.484.534-2.588-.075-5.118-1.719-7.117-.174-.211-.36-.417-.555-.619-2.787 1.515-6.73 3.102-12.006 4.057-7.148 1.288-11.12-.151-12.449-1.932-.646-.863-.75-1.869-.294-2.837.853-1.814 3.939-3.809 10.027-3.981 6.593-.181 11.783 1.292 14.793 4.175 3.508-1.953 5.057-3.733 5.086-3.767l.315.274c-.029.034-1.582 1.827-5.094 3.8a10.35 10.35 0 0 1 .497.556c1.727 2.1 2.369 4.756 1.806 7.475-.451 2.189-1.59 4.133-3.197 5.69 1.375 1.465 2.129 3.439 2.261 5.913.112 2.134-.563 4.045-1.951 5.522-.36.383-.762.732-1.205 1.048.866.943 1.338 2.096 1.338 3.283 0 4.057-3.798 5.934-3.835 5.951zm-3.197-11.031a8.06 8.06 0 0 0-.551.017c-2.125.114-3.056.926-3.04 1.679.017.774 1.019 1.608 2.841 1.625 2.121.034 4.179-.551 5.794-1.574-1.251-1.136-3.019-1.747-5.044-1.747zm-2.713-13.384c-4.825 0-7.484 1.915-7.558 3.392-.058 1.128 1.375 2.538 5.599 2.807 4.158.265 8.026-1.111 10.685-3.519-1.719-1.633-4.349-2.513-7.927-2.664a17.27 17.27 0 0 0-.799-.017zm-3.806-15.097c-.356 0-.716.004-1.081.017-5.902.164-8.863 2.041-9.666 3.742a2.22 2.22 0 0 0 .248 2.399c1.255 1.679 5.082 3.026 12.048 1.772 5.16-.93 9.02-2.471 11.766-3.948-2.775-2.588-7.422-3.982-13.315-3.982z" fill="#ffee76"/><path d="M91.324 6.557s-.327.581-1.035 1.608a42.7 42.7 0 0 1-3.355 4.23 43.01 43.01 0 0 1-6.175 5.652c-2.588 1.936-5.769 3.813-9.542 5.11-1.889.627-3.947 1.107-6.125 1.04-1.085-.046-2.211-.232-3.247-.77-.514-.269-1.002-.64-1.375-1.136s-.596-1.128-.588-1.772.211-1.263.53-1.793c.311-.539.733-.997 1.185-1.401.919-.808 2-1.385 3.123-1.839 1.131-.45 2.311-.774 3.52-1.006s2.439-.358 3.669-.471c2.472-.215 5.007-.32 7.571-.055 1.28.135 2.568.375 3.823.8 1.247.421 2.481 1.082 3.442 2.092.969 1.01 1.528 2.407 1.632 3.796.058.694.029 1.389-.062 2.071-.041.345-.103.669-.178 1.023-.066.316-.166.657-.269.993-.878 2.626-2.572 4.857-4.531 6.7-1.98 1.835-4.274 3.325-6.792 4.276-1.263.459-2.576.795-3.939.854-.679.025-1.379-.025-2.062-.231-.671-.21-1.367-.61-1.764-1.305-.406-.69-.385-1.553-.124-2.231.257-.694.704-1.263 1.209-1.734 1.019-.939 2.27-1.498 3.533-1.843 2.531-.636 5.152-.644 7.616-.114 1.234.269 2.431.686 3.537 1.275s2.116 1.376 2.891 2.369c.783.985 1.271 2.21 1.371 3.447l.021.231c.008.101.004.156.004.231 0 .151.013.286 0 .446-.008.316-.041.619-.087.922a7.27 7.27 0 0 1-.514 1.734c-.484 1.099-1.23 2.033-2.079 2.79s-1.806 1.347-2.783 1.822a16.33 16.33 0 0 1-2.998 1.082c-.505.126-1.011.231-1.516.307-.248.038-.514.072-.758.093a8.05 8.05 0 0 1-.779.013c-.514-.034-1.039-.135-1.503-.421-.232-.139-.443-.337-.584-.589s-.203-.547-.174-.829c.062-.568.398-1.019.774-1.334.377-.328.816-.543 1.259-.695.886-.311 1.802-.349 2.655-.341.861.013 1.702.105 2.493.303 1.582.374 2.99 1.271 3.711 2.538a5.28 5.28 0 0 1 .667 1.94c.087.652.095 1.275.008 1.864-.174 1.178-.646 2.146-1.135 2.904a11.12 11.12 0 0 1-1.454 1.78 12.44 12.44 0 0 1-1.06.943c-.253.198-.389.29-.389.29s.137-.097.381-.299a12.65 12.65 0 0 0 1.035-.964c.426-.45.928-1.035 1.4-1.801s.911-1.726 1.06-2.875c.128-1.132.012-2.487-.708-3.666-.704-1.187-2.05-2.016-3.587-2.353-.766-.181-1.586-.252-2.423-.252-.845.008-1.706.063-2.522.366-.406.147-.795.354-1.118.64-.323.278-.576.652-.613 1.052s.186.774.559.985c.369.219.828.316 1.296.337s.944-.029 1.437-.114a16.98 16.98 0 0 0 1.47-.316 15.72 15.72 0 0 0 2.891-1.077c.936-.467 1.839-1.044 2.634-1.768s1.47-1.595 1.901-2.605c.866-1.999.696-4.566-.774-6.33-1.441-1.789-3.703-2.862-6.043-3.363-2.356-.497-4.879-.48-7.273.131-1.176.324-2.327.854-3.214 1.679-.439.408-.808.896-1.002 1.435s-.195 1.115.075 1.57c.261.459.766.774 1.325.947s1.185.215 1.806.189c1.243-.059 2.497-.379 3.694-.821 2.394-.913 4.61-2.365 6.506-4.133s3.516-3.902 4.336-6.338c.091-.299.182-.593.253-.926.062-.299.128-.627.166-.939.087-.636.116-1.271.066-1.898-.091-1.25-.567-2.441-1.412-3.329s-1.951-1.503-3.127-1.902-2.415-.644-3.657-.779c-2.489-.265-4.99-.173-7.426.029-2.452.198-4.829.543-7.012 1.385-1.081.425-2.108.968-2.957 1.696-.837.72-1.516 1.684-1.532 2.719-.012.509.162 1.006.46 1.414s.716.737 1.172.985c.919.492 1.98.686 3.011.741 2.083.084 4.104-.358 5.96-.955 3.723-1.246 6.904-3.043 9.505-4.916 2.605-1.881 4.655-3.822 6.237-5.514s2.704-3.135 3.438-4.146c.721-1.01 1.06-1.582 1.06-1.582z" class="I"/><path d="M81.525 26.035c.688-.282 1.586-.77 3.127-1.288.253-.278-.054-1.78.195-2.02.671-.652 1.454-.24 1.748-1.103.236-.699-.046-1.448-.824-1.422.253-.69-.373-1.608-1.048-1.33-.174-1.103-1.276-1.237-1.652-.206-.224.093-1.93 1.082-2.381 1.263s-.385.219-.112 1.57l.948 4.537z" fill="#e1e8ed"/><path d="M81.753 25.943l2.708-1.103s-.513-5.943-1.536-5.526l-2.361.964 1.189 5.665z" fill="#ffac33"/><path d="M81.977 25.85l2.257-.922s-.282-3.51-1.089-5.417l-2.257.922 1.089 5.417z" fill="#ffd983"/><path d="M83.107 25.391l.224-.093-1.189-5.669-.224.093 1.189 5.669z" fill="#ffac33"/><path d="M84.685 24.747l1.135-3.098c-.199-.505-1.023-1.928-2.224-2.315l1.089 5.412z" fill="#e1e8ed"/><path d="M83.397 18.826c.124-.345 1.027-.711 1.201.387.224-.093 1.102.135.948 1.078.224-.093.948 1.077.596 1.515-1.669-2.243-2.746-2.98-2.746-2.98z" fill="#fff"/><path d="M84.495 21.907c.228.442.683 1.014 1.18.665s.853-1.073.878-1.456c.021-.337-.195-.602-1.052-.509-.567.059-1.429-.223-1.131.951l.124.349z" fill="#dd2e44"/><g fill="#f4abba"><path d="M85.675 21.305c.017.038.046.072.087.084l.199.063c.066.021.133-.017.149-.088s-.025-.147-.091-.168l-.199-.063c-.066-.021-.133.017-.149.088-.008.029-.008.059.004.084zm-.551.93c.004.013.008.021.017.029.041.059.12.076.174.034l.191-.151c.054-.042.062-.126.021-.185s-.12-.076-.174-.034l-.19.151c-.046.038-.058.101-.037.156zm-.455-1.094a.19.19 0 0 0 .041.059l.178.147c.054.046.132.038.17-.021s.025-.143-.033-.189l-.178-.147c-.054-.046-.133-.038-.17.021-.021.038-.025.088-.008.13z"/></g><path d="M66.856 25.901c.398.408-.236 1.338-1.197 2.298s-1.884 1.587-2.282 1.178-.46-1.709.671-2.841 2.415-1.044 2.808-.636z" fill="#ffd2a6"/><path d="M68.393 28.417l-2.559 2.563-2.713-1.683 1.83-1.827 1.831-1.831 1.611 2.778z" class="K"/><g fill="#7f4545"><path d="M65.725 27.483a.13.13 0 0 0-.128.13c0 .034.013.063.029.084l1.168 1.389c.025.029.058.046.095.046a.13.13 0 0 0 .128-.13c0-.034-.012-.063-.029-.084l-1.168-1.389c-.025-.029-.058-.046-.095-.046zm.638-.639a.13.13 0 0 0-.128.131c0 .025.008.05.021.072l.986 1.574c.021.038.062.059.108.059a.13.13 0 0 0 .128-.131c0-.025-.008-.05-.021-.071l-.986-1.574c-.021-.038-.062-.059-.108-.059zm-.314 2.967l-1.537-1.027c-.021-.013-.046-.021-.07-.021a.13.13 0 0 0-.128.131c0 .046.021.088.058.109l1.532 1.027c.021.013.046.021.07.021a.13.13 0 0 0 .128-.13c.004-.046-.021-.084-.054-.109zm.468-.446l-1.35-1.208c-.021-.021-.05-.034-.083-.034a.13.13 0 0 0-.128.13c0 .038.017.076.046.097l1.35 1.208c.021.021.05.034.083.034a.13.13 0 0 0 .128-.13c0-.038-.017-.076-.046-.097z"/></g><path d="M64.077 25.013c-.646.025-1.267.198-1.483.413-.128.126-.103.257-.041.337.36.45.286.728.191 1.073-.108.391-.228.833.29 1.519.054.072.128.109.215.118.253.017.654-.248 1.222-.817.336-.337.708-.758 1.019-1.157.493-.631.493-.758.497-.804a.17.17 0 0 0-.041-.109c-.53-.539-1.396-.589-1.868-.572z" class="K"/><g fill="#7f4545"><path d="M64.566 25.025c.054.063.199.252.323.551a2.31 2.31 0 0 1 .17.686 2.7 2.7 0 0 1-.041.812l.306-.362c.008-.16.008-.32-.008-.476a2.69 2.69 0 0 0-.191-.762 2.88 2.88 0 0 0-.203-.4l-.356-.05zm-.489-.012l-.224.013c.079.172.224.526.315.968.075.37.099.728.07 1.065a2.85 2.85 0 0 1-.315 1.094 5.43 5.43 0 0 0 .435-.387 3.18 3.18 0 0 0 .132-.69c.033-.366.004-.749-.075-1.145a4.94 4.94 0 0 0-.29-.922c-.017.004-.033.004-.05.004zm-1.06.185a2.51 2.51 0 0 1 .369.85 2.59 2.59 0 0 1 .037 1.01c-.062.404-.215.812-.456 1.212l.066.088c.033.042.075.076.124.097.277-.45.451-.909.522-1.368a2.89 2.89 0 0 0-.046-1.115 2.85 2.85 0 0 0-.356-.85l-.261.076z"/></g><path d="M62.69 26.806c-.041.042-.108.05-.157.017-.004 0-.133-.084-.335-.101-.269-.025-.534.063-.787.269-.054.046-.137.034-.182-.021s-.033-.139.021-.185c.389-.316.754-.349.986-.324.261.029.427.135.435.139a.13.13 0 0 1 .037.181c-.004.008-.012.017-.017.025z" fill="#434a54"/><path d="M63.054 26.254a.66.66 0 0 1-.008.922c-.253.253-.658.248-.907-.008a.66.66 0 0 1 .008-.922c.253-.253.658-.248.907.008z" fill="#ed5564"/><g fill="#a0d468"><use xlink:href="#B"/><path d="M63.427 24.966c-.05.051-.05.135 0 .185s.133.051.182 0 .05-.135 0-.185-.128-.05-.182 0zm-.369.733c-.05.05-.05.135 0 .185s.133.05.182 0 .05-.135 0-.185-.133-.05-.182 0zm-.467 1.932c-.05.05-.05.135 0 .185s.133.05.182 0 .05-.135 0-.185-.128-.05-.182 0zm.455-.27c-.05.05-.05.135 0 .185s.133.051.182 0 .05-.135 0-.185-.133-.05-.182 0zm.191-.922c-.05.051-.05.135 0 .185s.133.05.182 0 .05-.135 0-.185-.133-.05-.182 0zm.55-.732c-.05.05-.05.135 0 .185s.133.05.182 0 .05-.135 0-.185-.133-.05-.182 0zm.174.922c-.05.051-.05.135 0 .185s.133.05.182 0 .05-.135 0-.185-.133-.05-.182 0zm-.186.736c-.05.05-.05.135 0 .185s.133.05.182 0 .05-.135 0-.185-.133-.05-.182 0zm.915-1.098c-.05.05-.05.135 0 .185s.132.05.182 0 .05-.135 0-.185-.132-.05-.182 0zm.733-.732c-.05.05-.05.135 0 .185s.133.051.182 0 .05-.135 0-.185-.133-.05-.182 0z"/></g><path d="M80.018 49.554l1.081-1.692c.162-.257.087-.598-.166-.762s-.592-.097-.754.16l-1.565 2.45c-.116.181-.112.404-.008.581l1.412-.736z" class="D"/><path d="M77.363 50.093a.08.08 0 0 0 .045.088s.58.236.903.072.476-.783.476-.783a.08.08 0 0 0-.046-.088s-.58-.236-.903-.072-.476.783-.476.783z" fill="#009e7a"/><path d="M78.738 49.381c-.075.189-.207.438-.393.534-.311.16-.866-.055-.903-.072l-.083.248a.08.08 0 0 0 .046.088s.58.236.903.072.476-.783.476-.783a.08.08 0 0 0-.046-.088z" fill="#000" class="J"/><path d="M77.939 49.853a.13.13 0 0 0 .178.059l.634-.328.033-.109a.08.08 0 0 0-.046-.088l-.108-.038-.634.328c-.062.029-.091.11-.058.177z" fill="#1e8574"/><path d="M78.833 48.152l.133.051c.046-.194.07-.446-.017-.623-.166-.328-.77-.484-.77-.484-.033-.008-.075.013-.087.046 0 0-.232.589-.07.918.017.029.033.059.058.088.207-.08.476-.088.754.004z" fill="#009e7a"/><path d="M78.361 48.089c-.017-.021-.033-.046-.046-.072-.133-.265-.008-.699.046-.859l-.186-.063c-.033-.008-.075.013-.087.046 0 0-.232.589-.07.918.017.029.033.059.058.088a.89.89 0 0 1 .286-.059z" fill="#000" class="J"/><path d="M78.792 48.14l-.199-.391a.13.13 0 0 0-.178-.059c-.066.034-.091.114-.058.181l.108.219c.108 0 .215.017.327.05z" fill="#1e8574"/><path d="M79.003 48.131l-.145-.059c-.509-.168-.998-.008-1.118.362s.186.791.696.96c.124.042.257.063.381.067.07-.273.191-.825.186-1.33z" fill="#ff3d6c"/><g class="J"><path d="M78.867 49.255l-.099-.03c-.509-.168-.816-.589-.696-.96a.56.56 0 0 1 .145-.232c-.232.055-.414.198-.476.4-.12.37.186.791.696.959.124.042.257.063.381.067a2.52 2.52 0 0 0 .05-.206z" fill="#000" class="J"/></g><g fill="#ff1b52"><path d="M78.581 48.502c-.029.017-.066.017-.099.008a.13.13 0 0 1-.079-.067c-.017-.033-.021-.067-.008-.101s.033-.063.066-.076.066-.017.099-.008.062.034.075.067.021.067.008.101-.033.059-.062.076zm-.182.564c-.029.017-.066.017-.099.008s-.062-.034-.075-.067-.021-.067-.008-.101.033-.063.066-.076.066-.017.099-.009.062.034.075.067a.16.16 0 0 1 .008.101c-.009.034-.037.059-.066.076zm-.228-.387c-.029.017-.066.017-.099.008s-.062-.034-.075-.067-.021-.067-.008-.101.033-.063.066-.076.066-.021.099-.008.062.034.075.067.021.067.008.101a.15.15 0 0 1-.066.076z"/></g><g class="B"><path d="M78.751 49.566l1.371-2.146c-.286-.817-1.802-.745-1.363-.168.476.627-.029 2.311-.029 2.311l.021.004zm3.073-.946l.133-.206c.166-.257.091-.602-.162-.77s-.592-.093-.758.164l-1.164 1.822 1.951-1.01z"/></g><path d="M82.652 48.801l-.141-.282c-.066-.135-.232-.189-.364-.122l-3.645 1.89a.28.28 0 0 0-.12.37l.141.282 4.129-2.138z" fill="#ff4975"/><path d="M79.028 50.017l-.526.274a.28.28 0 0 0-.12.37l.141.282.526-.274-.141-.282a.28.28 0 0 1 .12-.37z" fill="#000" class="J"/><g fill="#a8734c"><path d="M78.382 50.897c-.041.021-.046.067-.008.097l2.183 1.768a.15.15 0 0 0 .145.017l.331-.173-1.93-2.083-.721.375zm4.32-2.24l-.725.375.526 2.812.331-.173a.16.16 0 0 0 .075-.131l-.124-2.837c0-.05-.037-.072-.083-.046z"/></g><g fill="#d89864"><path d="M80.892 52.584l-2.183-1.768c-.037-.029-.033-.076.008-.097l-.335.173c-.041.021-.046.067-.008.097l2.183 1.768a.15.15 0 0 0 .145.017l.335-.173a.14.14 0 0 1-.145-.017z"/><path d="M79.107 50.518l1.926 2.083.493-.253-1.458-2.327-.961.497zm1.909-.989l.994 2.567.493-.252-.526-2.811-.961.497z"/></g><path d="M80.068 50.021l1.458 2.327.485-.252-.994-2.567-.948.492z" fill="#a8734c"/><path d="M68.48 6.414l.849-5.981s.853-.867 3.015-.152c1.76.581 2.112 1.97 2.112 1.97L68.48 6.414z" fill="#fff39c"/><path d="M68.571 9.571l-.091-3.157 5.976-4.158-.77 3.565-5.115 3.75z" class="I"/><path d="M68.571 9.571l-.021-.779 5.305-3.758-.17.787-5.115 3.75z" fill="#b5475c"/><path d="M71.663 2.316c.398-.301.485-.867.195-1.264A.88.88 0 0 0 70.61.877c-.398.301-.485.867-.195 1.264a.88.88 0 0 0 1.248.174z" fill="#ff3d6c"/><path d="M70.82 1.17c.09-.068.135-.161.101-.207s-.135-.029-.225.039-.135.161-.101.207.135.029.225-.039z" fill="#ff7058"/><path d="M70.749 1.094c-.029.021-.075.013-.095-.013-.153-.206-.099-.484.104-.636.029-.021.075-.013.095.013s.012.076-.012.097a.32.32 0 0 0-.066.459c.008.008.017.046-.025.08z" fill="#40596b"/><path d="M76.651 7.058c-.087-.088-.132-.046-.219-.135 0 0-.195.337-.166.657l.075.076.356-.539c-.012-.021-.025-.038-.046-.059z" class="F"/><path d="M76.999 7.416c-.021-.021-.041-.034-.058-.046l-.53.362.075.076c.315.029.646-.168.646-.168-.087-.093-.041-.135-.133-.223z" class="G"/><path d="M76.779 7.281c-.066-.067-.058-.109-.087-.164l-.356.539.075.076.53-.362c-.054-.029-.095-.021-.161-.088z" class="C"/><path d="M74.853 9.596c.087.088.133.046.22.135 0 0 .195-.337.166-.657l-.075-.076-.356.539c.012.017.025.038.045.059z" class="G"/><path d="M74.559 9.285c.054.029.095.021.162.088s.058.109.087.164l.356-.539-.075-.076-.53.362z" class="C"/><g class="F"><path d="M75.015 8.847c-.315-.029-.646.168-.646.168.087.088.046.135.133.223.021.021.041.034.058.046l.53-.362-.075-.076z"/><path d="M76.647 8.325c0-.501-.402-.909-.895-.909a.89.89 0 0 0-.352.072c-.282.56-.029 1.351.704 1.675.319-.139.543-.463.543-.838z"/></g><path d="M74.858 8.325c0 .501.402.909.895.909.124 0 .244-.025.352-.072-.588-.598-.116-1.077-.704-1.675-.319.143-.543.463-.543.838z" class="C"/><use xlink:href="#C" class="D"/><path d="M93.084 9.192c-.008-.025-.016-.046-.025-.059l-.555.055.025.088c.228.156.563.143.563.143-.029-.105.025-.118-.008-.227z" class="H"/><path d="M92.973 8.998c-.025-.08 0-.109 0-.164l-.493.261.025.088.555-.055c-.029-.042-.062-.05-.087-.13z" class="B"/><path d="M90.546 9.958c.029.105.083.088.112.194 0 0 .29-.177.398-.433l-.025-.088-.493.261c0 .021 0 .038.008.067z" class="H"/><path d="M90.45 9.592c.029.046.066.055.087.135s0 .109 0 .164l.493-.261-.025-.088-.555.051z" class="B"/><g class="D"><use xlink:href="#D"/><use xlink:href="#E"/></g><use xlink:href="#F" class="B"/><use xlink:href="#G" class="F"/><use xlink:href="#H" class="G"/><use xlink:href="#I" class="C"/><use xlink:href="#J" class="G"/><use xlink:href="#K" class="C"/><g class="F"><use xlink:href="#L"/><use xlink:href="#M"/></g><use xlink:href="#N" class="C"/><g fill="#fff" class="E"><use xlink:href="#G" class="E"/><use xlink:href="#H" class="E"/><use xlink:href="#I" class="E"/><use xlink:href="#J" class="E"/><use xlink:href="#K" class="E"/><use xlink:href="#L" class="E"/><use xlink:href="#M" class="E"/><use xlink:href="#N" class="E"/></g><path d="M84.598 44.878c-.087-.088-.132-.046-.219-.135 0 0-.195.337-.166.657l.075.076.356-.539c-.008-.017-.025-.038-.046-.059z" class="F"/><path d="M84.95 45.236c-.021-.021-.041-.034-.058-.046l-.53.362.075.076c.315.029.646-.168.646-.168-.087-.088-.045-.135-.132-.223z" class="G"/><path d="M84.731 45.101c-.066-.067-.058-.109-.087-.164l-.356.539.075.076.53-.362c-.054-.03-.095-.017-.161-.088z" class="C"/><path d="M82.805 47.42c.087.088.133.046.22.135 0 0 .195-.337.166-.657l-.075-.076-.356.539c.008.017.021.038.046.059z" class="G"/><path d="M82.511 47.109c.054.029.095.021.162.088s.058.109.087.164l.356-.539-.075-.076-.53.362z" class="C"/><g class="F"><path d="M82.967 46.667c-.315-.03-.646.168-.646.168.087.088.046.135.133.223.021.021.041.034.058.046l.53-.362-.075-.076z"/><path d="M84.598 46.149c0-.501-.402-.909-.894-.909-.124 0-.244.025-.352.072-.282.56-.029 1.351.704 1.675.319-.139.543-.463.543-.838z"/></g><path d="M82.805 46.149c0 .501.402.909.895.909.124 0 .244-.025.352-.071-.588-.598-.116-1.078-.704-1.675-.319.139-.543.463-.543.837z" class="C"/><path d="M84.805 53.615c-.029-.105-.083-.088-.112-.194 0 0-.29.177-.398.429l.025.088.493-.261c0-.017 0-.038-.008-.063z" class="D"/><path d="M84.926 54.036c-.008-.025-.017-.046-.025-.059l-.555.055.025.088c.228.156.563.143.563.143-.029-.105.025-.118-.008-.227z" class="H"/><path d="M84.814 53.842c-.025-.08 0-.109 0-.164l-.493.261.025.088.555-.055c-.029-.042-.062-.05-.087-.13z" class="B"/><path d="M82.387 54.802c.029.105.083.088.112.194 0 0 .29-.177.398-.433l-.025-.088-.493.261c0 .021.004.038.008.067z" class="H"/><path d="M82.292 54.436c.029.046.066.055.087.135s0 .109 0 .164l.493-.261-.025-.088-.555.05z" class="B"/><g class="D"><path d="M82.822 54.293c-.228-.156-.563-.143-.563-.143.029.105-.021.122.008.227.008.025.016.046.025.059l.555-.055-.025-.088z"/><path d="M84.284 54.588a.8.8 0 0 0-.315-1.077c-.095-.055-.199-.084-.302-.093-.447.311-.576 1.023-.145 1.578a.78.78 0 0 0 .762-.408z"/></g><path d="M82.913 53.83a.8.8 0 0 0 .315 1.077c.095.055.199.084.298.093-.203-.707.352-.875.145-1.578a.76.76 0 0 0-.758.408z" class="B"/><path d="M89.452 42.399c.054-.046.033-.076.087-.118 0 0-.178-.13-.356-.135l-.046.038.282.236c.008 0 .016-.008.033-.021z" class="D"/><path d="M89.233 42.584l.029-.029-.174-.328-.046.038c-.033.177.058.383.058.383.054-.046.075-.017.133-.063z" class="H"/><path d="M89.32 42.462c.041-.034.066-.025.095-.042l-.282-.236-.046.038.174.328c.017-.029.017-.055.058-.088z" class="B"/><path d="M88.135 41.221c-.054.046-.033.076-.087.118 0 0 .178.13.356.135l.046-.038-.282-.236c-.008.004-.021.008-.033.021z" class="H"/><path d="M88.326 41.069c-.021.029-.016.055-.058.088s-.066.025-.095.042l.282.236.046-.038-.174-.328z" class="B"/><g class="D"><path d="M88.545 41.36c.033-.181-.058-.383-.058-.383-.054.046-.079.017-.133.063l-.029.029.174.328.046-.038z"/><path d="M88.74 42.328c.282.029.53-.181.559-.463.008-.072 0-.143-.021-.206-.298-.194-.754-.093-.973.311a.51.51 0 0 0 .435.358z"/></g><path d="M88.843 41.297c-.282-.029-.53.181-.559.463-.008.072 0 .143.021.206.369-.303.609-.008.973-.311-.058-.189-.224-.337-.435-.358z" class="B"/><path d="M77.475 14.76c-.116-.122-.174-.059-.29-.181 0 0-.261.45-.224.875l.099.101.476-.72c-.017-.021-.033-.046-.062-.076z" class="D"/><path d="M77.939 15.24a.37.37 0 0 0-.075-.059l-.704.484.099.101c.414.042.853-.223.853-.223-.116-.122-.058-.181-.174-.303z" class="H"/><path d="M77.649 15.059c-.087-.093-.075-.147-.116-.223l-.476.72.099.101.704-.484c-.07-.034-.124-.021-.211-.114z" class="B"/><path d="M75.09 18.152c.116.122.174.059.29.181 0 0 .261-.45.224-.88l-.099-.101-.476.72c.013.025.033.05.062.08z" class="H"/><path d="M74.7 17.732c.07.042.128.029.215.118s.075.147.116.223l.476-.72-.099-.101-.708.48z" class="B"/><g class="D"><path d="M75.305 17.146c-.414-.042-.857.223-.857.223.116.122.058.181.174.299.029.029.054.046.075.059l.704-.484-.095-.097zm2.162-.685c.004-.673-.526-1.22-1.18-1.22-.166 0-.323.034-.468.097-.377.749-.041 1.81.924 2.243a1.22 1.22 0 0 0 .725-1.12z"/></g><path d="M75.098 16.452c-.004.673.526 1.221 1.18 1.221a1.13 1.13 0 0 0 .464-.097c-.775-.804-.149-1.439-.924-2.243a1.22 1.22 0 0 0-.721 1.12z" class="B"/><path d="M61.675 12.029c.046-.118-.012-.143.037-.257 0 0-.381-.055-.658.097l-.041.101.625.126c.012-.017.025-.038.037-.067z" class="F"/><path d="M61.485 12.496c.012-.029.017-.05.021-.071l-.534-.358-.041.101c.095.303.402.539.402.539.05-.118.108-.093.153-.21z" class="G"/><path d="M61.522 12.239c.037-.088.079-.097.116-.143l-.625-.126-.041.101.534.358c.004-.063-.021-.101.017-.189z" class="C"/><path d="M58.677 11.321c-.046.118.012.143-.037.257 0 0 .381.055.663-.097l.041-.097-.63-.126c-.012.013-.025.034-.037.063z" class="G"/><path d="M58.851 10.926c-.008.063.017.097-.017.185s-.079.097-.116.143l.63.126.041-.101-.538-.353z" class="C"/><g class="F"><path d="M59.422 11.187c-.091-.307-.402-.543-.402-.543-.046.118-.103.093-.153.21a.32.32 0 0 0-.021.072l.534.358.041-.097z"/><path d="M60.52 12.517a.92.92 0 0 0 .485-1.191.9.9 0 0 0-.203-.303c-.617-.051-1.238.492-1.251 1.305.248.244.63.333.969.189z"/></g><path d="M59.832 10.833a.92.92 0 0 0-.484 1.191.9.9 0 0 0 .203.303c.319-.779.932-.522 1.251-1.305a.89.89 0 0 0-.969-.189z" class="C"/><g class="I"><path d="M64.935 9.588c.672 0 1.218-.554 1.218-1.237s-.545-1.237-1.218-1.237-1.218.554-1.218 1.237.545 1.237 1.218 1.237z"/><path d="M64.442 7.694s-.182-.072-.443-.21a4.38 4.38 0 0 1-.882-.636c-.145-.139-.286-.286-.393-.45-.046-.084-.099-.16-.128-.248s-.066-.16-.079-.24l-.037-.21c-.008-.063 0-.118 0-.164l.012-.139.029-.004s.025.046.058.126c.021.038.033.088.058.139l.087.173c.029.063.075.126.108.198s.091.135.133.21.099.147.145.227l.17.223c.244.29.547.535.779.707a3.79 3.79 0 0 0 .402.265l-.017.034z"/></g><use xlink:href="#O" fill="#f8b9c4"/><path d="M59.136 8.253c.451 0 .816-.371.816-.829s-.365-.829-.816-.829-.816.371-.816.829.365.829.816.829z" fill="#e8ad71"/><path d="M59.948 17.235c.451 0 .816-.371.816-.829s-.365-.829-.816-.829-.816.371-.816.829.365.829.816.829z" class="I"/><use xlink:href="#P" class="B"/><path d="M67.018 21.869a.74.74 0 0 0 .733-.745.74.74 0 0 0-.733-.745.74.74 0 0 0-.733.745.74.74 0 0 0 .733.745z" fill="#fff9c2"/><path d="M73.499 25.505c.661 0 1.197-.545 1.197-1.216s-.536-1.216-1.197-1.216-1.197.545-1.197 1.216.536 1.216 1.197 1.216z" fill="#e8ad71"/><path d="M77.463 25.232c.451 0 .816-.371.816-.829s-.365-.829-.816-.829-.816.371-.816.829.365.829.816.829z" class="I"/><path d="M91.424 17.332c.451 0 .816-.371.816-.829s-.365-.829-.816-.829-.816.371-.816.829.365.829.816.829z" fill="#f8b9c4"/><path d="M94.41 14.806c.286 0 .518-.236.518-.526s-.232-.526-.518-.526-.518.235-.518.526.232.526.518.526z" fill="#fff"/><path d="M75.752 32.05a1.06 1.06 0 0 0 1.052-1.069 1.06 1.06 0 0 0-1.052-1.069 1.06 1.06 0 0 0-1.052 1.069 1.06 1.06 0 0 0 1.052 1.069z" class="B"/><path d="M68.877 18.211a1.06 1.06 0 0 0 1.052-1.069 1.06 1.06 0 0 0-1.052-1.069 1.06 1.06 0 0 0-1.052 1.069 1.06 1.06 0 0 0 1.052 1.069z" class="K"/><path d="M85.336 34.432l-4.365.337-.099.442 5.372 1.233.099-.442c-.004 0 .116-1.082-1.006-1.57z" fill="#f5f6f6"/><path d="M80.971 34.766l-.648 2.915 5.373 1.234.648-2.915-5.373-1.234z" fill="#eeb074"/><g fill="#875835"><path d="M86.069 37.226c-.249-.059-.373-.126-.485-.185a1.28 1.28 0 0 0-.385-.147 1.16 1.16 0 0 0-.41-.034 1.63 1.63 0 0 1-.513-.042c-.249-.059-.373-.126-.485-.185a1.28 1.28 0 0 0-.385-.147 1.16 1.16 0 0 0-.41-.034c-.124.008-.265.013-.514-.042s-.373-.126-.484-.185a1.26 1.26 0 0 0-.385-.147 1.16 1.16 0 0 0-.41-.034 1.63 1.63 0 0 1-.514-.042l.083-.379a1.16 1.16 0 0 0 .41.034c.124-.008.265-.013.513.042s.373.126.485.185a1.26 1.26 0 0 0 .385.147 1.16 1.16 0 0 0 .41.034 1.63 1.63 0 0 1 .514.042c.248.059.373.126.484.185a1.28 1.28 0 0 0 .385.147 1.16 1.16 0 0 0 .41.034 1.63 1.63 0 0 1 .514.042c.248.055.373.126.484.185a1.28 1.28 0 0 0 .385.147l-.083.379zm-.22.973c-.248-.059-.373-.126-.485-.185a1.28 1.28 0 0 0-.385-.147 1.16 1.16 0 0 0-.41-.034c-.124.009-.265.013-.514-.042s-.373-.126-.485-.185a1.28 1.28 0 0 0-.385-.147 1.16 1.16 0 0 0-.41-.034 1.63 1.63 0 0 1-.514-.042c-.249-.059-.373-.126-.485-.185a1.28 1.28 0 0 0-.385-.147 1.16 1.16 0 0 0-.41-.034c-.124.008-.265.013-.514-.042l.083-.379a1.16 1.16 0 0 0 .41.034 1.63 1.63 0 0 1 .514.042c.248.059.373.126.485.185a1.28 1.28 0 0 0 .385.147 1.16 1.16 0 0 0 .41.034 1.63 1.63 0 0 1 .514.042c.248.059.373.126.485.185a1.28 1.28 0 0 0 .385.147 1.16 1.16 0 0 0 .41.034 1.63 1.63 0 0 1 .514.042c.249.059.373.126.485.185a1.28 1.28 0 0 0 .385.147l-.083.379z"/></g><g class="I"><path d="M84.308 35.278c.512 0 .928-.422.928-.943s-.415-.943-.928-.943-.928.422-.928.943.415.943.928.943z"/><path d="M84.528 33.75s-.029-.147-.046-.374a3.35 3.35 0 0 1 .05-.838c.029-.151.066-.303.124-.442.033-.067.062-.131.108-.185s.079-.109.12-.147.083-.076.12-.109.075-.05.104-.067l.095-.05.012.017-.058.088c-.017.029-.041.059-.066.097l-.075.126c-.029.046-.05.101-.079.152s-.05.114-.083.173-.054.122-.087.185-.05.135-.075.202c-.083.278-.12.572-.137.796s-.008.374-.008.374l-.021.004z"/></g><g fill="#dd2e44"><path d="M83.65 7.538c-.609.008-1.483.202-1.379.951s.688 1.553 1.089 1.793c.356.21.762.114 1.139-.896.249-.665 1.035-1.477-.402-1.797l-.447-.051z"/><path d="M83.84 6.047l-.349 2.014.502.09.349-2.014-.502-.09z"/></g><g fill="#d8738b"><path d="M83.646 9.196a.17.17 0 0 0-.137.05l-.182.189c-.062.063-.054.16.017.215s.174.051.232-.008l.182-.189c.062-.063.054-.16-.012-.215-.029-.025-.062-.038-.099-.042zm-.704-1.132H82.9a.15.15 0 0 0-.133.177l.058.299c.017.084.103.139.191.126a.15.15 0 0 0 .132-.177l-.058-.299c-.013-.072-.075-.122-.149-.126zm1.441.101c-.029-.004-.058 0-.087.013l-.257.118c-.083.038-.112.13-.07.206s.141.105.224.072l.257-.118c.083-.038.112-.13.07-.206-.029-.05-.079-.08-.137-.084z"/></g><path d="M80.068 3.889A1.06 1.06 0 0 0 81.12 2.82a1.06 1.06 0 0 0-1.052-1.069 1.06 1.06 0 0 0-1.052 1.069 1.06 1.06 0 0 0 1.052 1.069z" class="B"/><g fill="#fff"><path d="M78.386 5.917c.286 0 .518-.236.518-.526s-.232-.526-.518-.526-.518.236-.518.526.232.526.518.526zM6.502 20.248c3.649 0 5.993.568 8.577.598-1.226 1.107-2.82 1.271-4.556 1.271-.613 0-1.251-.025-1.893-.025-1.147 2.896-2.692 7.391-4.183 12.912-.77 2.87-1.334 4.71-1.334 6.498 0 .189 0 .408.025.593-1.599 0-2.104-.783-2.104-1.919 0-1.056.534-2.626.986-3.956 1.197-3.544 3.541-10.017 5.434-14.133-3.698.055-5.135.135-7.455.543.133-1.814 2.825-2.382 6.502-2.382zm11.754 16.461c1.387 0 3.438-3.169 4.075-5.551a.9.9 0 0 1-.265-.652c0-1.082.828-1.839 1.118-1.839.373 0 .373.459.373.652s-.294.892-.294 1.002c0 1.002 2.717 1.46 2.717 3.763 0 1.65-1.334 3.439-1.334 4.575 0 .648.373.812.799.812 1.677 0 3.864-2.462 4.531-4.036l.348.269c-1.015 2.302-3.305 4.739-5.57 4.739-1.201 0-1.946-.703-1.946-1.759 0-1.599 1.466-3.628 1.466-5.063 0-1.166-.828-1.57-1.491-2.058-.799 2.466-2.663 5.796-4.688 5.796-1.011 0-1.839-.404-2.261-1.246-1.118 2.656-2.8 4.495-4.663 4.495-1.358 0-2.129-.976-2.129-2.353 0-2.87 3.276-8.043 6.448-8.043.667 0 .986.244 1.147.568.054-.025.108-.025.186-.025.667 0 .903.728.903 1.056 0 .678-1.035 1.974-1.035 3.409-.004 1.002.443 1.49 1.566 1.49zm-2.692-1.435c-.108-.433-.162-.922-.162-1.545 0-1.221.211-2.003.505-2.466-3.011 0-5.169 4.739-5.169 6.797 0 .838.373 1.38 1.011 1.38 1.205.004 2.858-1.839 3.814-4.167z"/><path d="M37.555 31.591l-4.688.328h-.398c-.828 1.923-1.466 3.977-1.466 5.901 0 1.57.427 2.167 1.491 2.167 1.839 0 3.703-1.789 5.065-4.63l.344.269c-1.28 3.06-3.673 5.362-6.179 5.362-1.545 0-2.373-.892-2.373-2.681 0-1.595.642-4.062 1.545-6.524-.344-.055-.667-.109-.961-.215v-.488l1.172.11c1.491-3.897 3.541-7.61 4.634-7.61.265 0 .559.215.559.594 0 .947-1.996 3.763-3.541 7.096h.986l3.81-.164v.484z"/><path d="M41.369 31.157c0 .892-2.771 4.171-2.771 6.713 0 1.3.427 1.625 1.305 1.625 1.201 0 2.584-1.052 4.104-4.141l.24.269c-1.04 3.114-3.168 4.819-5.247 4.819-1.387 0-2.054-1.002-2.054-2.273 0-2.058 2.025-7.609 3.839-7.609.315.004.584.219.584.598zm-.269-4.007c0-.758 1.093-1.406 1.947-1.406.53 0 .878.215.878.837 0 .678-.878 1.465-1.731 1.465-.588 0-1.093-.274-1.093-.896z"/><path d="M52.133 33.295c0-.758-.642-1.221-1.334-1.221-3.143 0-5.007 7.42-5.326 8.018-.186.324-.584.488-.907.488-.903 0-.932-1.301-.932-2.546 0-5.661 6.183-17.626 8.076-17.626.48 0 .824.783.824 1.759 0 2.491-2.29 6.418-5.434 8.342-1.172 2.925-1.76 5.875-1.76 7.744 1.118-2.87 3.305-7.58 5.968-7.58 1.305 0 2.373 1.082 2.373 2.412 0 2.327-2.746 3.169-3.785 3.169.079.593.667 3.493 2.079 3.493 1.52 0 2.849-1.949 3.943-4.415l.265.269c-.77 2.656-2.878 5.173-4.742 5.173-2.025 0-2.717-3.224-2.717-4.874.799-.004 3.408-.762 3.408-2.605zm-4.581-3.868c2.452-2.003 4.075-5.198 4.075-6.578 0-.189-.029-.244-.079-.244-.534 0-2.452 3.19-3.997 6.822zm59.203-9.454c2.639 0 5.728.379 6.983.568-.853.867-1.864.947-2.584.947l-2.904.025c-.347 1.894-1.76 9.907-2.638 13.51-.584 2.332-1.25 3.952-2.24 4.63 1.839.109 4.104.488 5.781.514-1.039 1.056-2.265 1.166-3.011 1.166-2.878.025-5.433-.055-8.017.459.186-1.978 2.103-2.168 4.344-2.168 1.942-4.251 3.756-14.945 4.85-18.114-2.771.055-4.026.164-5.997.543.236-1.376 1.834-2.079 5.433-2.079zm4.32 12.594c.215-.244.721-.568 1.226-.568.48 0 .72.269.72.703 0 .568-.372 2.088-.853 3.573 1.413-2.193 3.516-4.764 5.542-4.764 1.387 0 1.971 1.221 1.971 2.437 0 1.679-1.089 2.95-1.089 4.28 0 .758.343 1.027.799 1.027 1.334 0 2.746-2.218 3.732-4.226l.294.354c-1.119 2.656-2.614 4.575-4.61 4.575-1.251 0-1.864-.732-1.864-1.734 0-1.111.771-2.492.771-3.763 0-1.002-.452-1.326-1.065-1.326-2.211 0-4.663 4.301-6.046 6.688-.559 0-1.118-.189-1.412-.593-.005-.328 1.859-4.31 1.884-6.662zm12.106 6.389c0-.593.853-1.107 1.544-1.107.427 0 .692.16.692.648 0 .543-.692 1.191-1.387 1.191-.452-.004-.849-.219-.849-.732zm17.849 3.14c-1.333 0-2.157-1.326-2.157-2.87 0-.488.078-1.38.24-2.466-1.334 2.95-3.172 5.009-5.757 5.009-2.29 0-3.466-1.595-3.466-3.683 0-3.493 3.33-10.964 3.33-15.025 0-1.545-.481-2.382-1.491-2.382-1.922 0-2.825 2.925-2.825 4.684 0 .514.079 1.002.211 1.326-1.358 0-1.839-.842-1.839-1.869 0-2.247 2.316-4.899 5.086-4.899 1.947 0 2.746 1.301 2.746 3.279 0 3.977-3.276 10.695-3.276 14.457 0 1.679.642 3.03 2.237 3.03 2.932 0 4.82-4.44 5.516-7.336 1.28-5.387 3.197-13.43 4.634-13.43.294 0 .825.328 1.334.867-.907.623-4.904 12.399-4.904 17.487 0 2.492.613 3.169 2.129 3.169-.654.463-1.242.652-1.748.652zm12.081-7.744c0 .623-1.545 2.466-1.545 3.767 0 .539.265 1.191.907 1.191.961 0 2.663-1.41 4.262-4.28l.265.269c-1.118 2.925-3.384 4.929-5.276 4.929-1.305 0-1.918-.947-1.918-1.894 0-.215.025-.488.079-.783-1.545 2.083-2.717 3.14-4.026 3.14-1.118 0-1.971-.728-1.971-2.247 0-3.224 3.918-8.312 7.38-8.312 1.388 0 2.427.812 2.427 2.029 0 .892-.534 1.166-1.304 1.166.078-.299.132-.652.132-.947 0-.812-.344-1.515-1.304-1.515-2.506 0-5.488 5.034-5.488 7.664 0 .728.24 1.056.717 1.056 1.652 0 4.29-3.952 5.595-5.905.323.05 1.068.265 1.068.673z"/></g></g><defs><clipPath id="A"><path fill="#fff" d="M0 0h157v55H0z"/></clipPath><path id="B" d="M64.599 25.623c-.05.05-.05.135 0 .185s.133.05.182 0 .05-.135 0-.185-.133-.05-.182 0z"/><path id="C" d="M92.964 8.771c-.029-.105-.083-.088-.112-.194 0 0-.29.177-.398.429l.025.088.493-.261c0-.017 0-.038-.008-.063z"/><path id="D" d="M90.98 9.449c-.228-.156-.563-.143-.563-.143.029.105-.021.122.008.227.008.025.016.046.025.059l.555-.055-.025-.088z"/><path id="E" d="M92.442 9.743a.8.8 0 0 0-.315-1.077c-.095-.055-.199-.084-.302-.093-.447.311-.576 1.023-.145 1.578a.78.78 0 0 0 .762-.408z"/><path id="F" d="M91.072 8.986a.8.8 0 0 0 .315 1.077c.095.055.199.084.298.093-.203-.707.352-.875.145-1.578a.76.76 0 0 0-.758.408z"/><path id="G" d="M74.907 40.56c.075-.147.004-.185.079-.337 0 0-.497-.118-.878.046l-.066.126.812.24c.017-.017.033-.042.054-.076z"/><path id="H" d="M74.605 41.153c.016-.038.029-.067.033-.093l-.663-.535-.066.126c.087.412.468.758.468.758.079-.147.149-.109.228-.257z"/><path id="I" d="M74.68 40.816c.058-.114.112-.118.17-.177l-.812-.24-.066.126.663.535c.016-.084-.008-.13.046-.244z"/><path id="J" d="M71.043 39.272c-.075.147-.004.185-.079.337 0 0 .497.118.882-.05l.062-.126-.812-.24c-.016.021-.037.046-.054.08z"/><path id="K" d="M71.313 38.771c-.016.08.013.13-.046.244s-.112.118-.17.177l.812.24.066-.126-.663-.535z"/><path id="L" d="M72.037 39.183c-.087-.412-.468-.762-.468-.762-.075.147-.149.11-.224.257-.017.038-.029.067-.033.093l.663.535.062-.122z"/><path id="M" d="M73.334 41.061c.621-.202.969-.875.77-1.511-.05-.16-.128-.303-.232-.421-.808-.139-1.69.505-1.793 1.57.298.354.787.514 1.255.362z"/><path id="N" d="M72.617 38.771c-.621.202-.969.875-.77 1.511.05.16.128.303.232.421.505-.989 1.288-.581 1.793-1.57-.302-.353-.791-.513-1.255-.362z"/><path id="O" d="M64.864 3.83c.451 0 .816-.371.816-.829s-.365-.829-.816-.829-.816.371-.816.829.365.829.816.829z"/><path id="P" d="M62.719 20.968a1.06 1.06 0 0 0 1.052-1.069 1.06 1.06 0 0 0-1.052-1.069 1.06 1.06 0 0 0-1.052 1.069 1.06 1.06 0 0 0 1.052 1.069z"/></defs></svg>